<?xml version="1.0" encoding="UTF-8" standalone="no"?>
<svg width="96px" height="77px" viewBox="0 0 96 77" version="1.1" xmlns="http://www.w3.org/2000/svg" xmlns:xlink="http://www.w3.org/1999/xlink" xmlns:sketch="http://www.bohemiancoding.com/sketch/ns">
    <!-- Generator: Sketch 3.0.2 (7799) - http://www.bohemiancoding.com/sketch -->
    <title>gu-box</title>
    <description>Created with Sketch.</description>
    <defs>
        <path id="path-1" d="M0,0.235 L95.896,0.235 L95.896,76.94 L0,76.94"></path>
        <path id="path-3" d="M0,0.235 L95.896,0.235 L95.896,76.94 L0,76.94"></path>
        <path id="path-5" d="M0,0.235 L95.896,0.235 L95.896,76.94 L0,76.94 L0,0.235 Z"></path>
        <path id="path-7" d="M0,0.235 L95.896,0.235 L95.896,76.94 L0,76.94 L0,0.235 Z"></path>
    </defs>
    <g id="Page-1" stroke="none" stroke-width="1" fill="none" fill-rule="evenodd" sketch:type="MSPage">
        <g id="gu-box" sketch:type="MSLayerGroup">
            <path d="M6.368,56.127 C6.368,53.131 8.394,51.365 11.06,51.365 C12.072,51.365 12.661,51.531 13.181,51.682 L13.632,51.285 L13.837,51.285 L13.933,54.281 L13.645,54.281 C12.962,52.447 11.991,51.928 10.977,51.928 C9.391,51.928 7.846,53.117 7.846,55.99 C7.846,58.234 8.967,60.271 11.293,60.271 C11.964,60.271 12.688,60.08 12.688,59.863 C12.688,59.396 12.702,58.152 12.661,57.098 L12.606,57.043 L11.266,56.975 L11.266,56.512 L15.097,56.512 L15.097,56.975 L14.11,57.043 L14.056,57.098 C14.028,57.973 14.015,58.959 14.028,60.012 C13.864,60.354 12.552,60.887 11.17,60.887 C8.38,60.887 6.368,59.15 6.368,56.127" id="Fill-1" fill="#1A1918" sketch:type="MSShapeGroup"></path>
            <path d="M21.457,49.793 C21.457,49.355 21.731,49.014 22.196,49.014 C22.634,49.014 22.907,49.301 22.907,49.738 C22.907,50.178 22.62,50.518 22.155,50.518 C21.731,50.518 21.457,50.23 21.457,49.793 L21.457,49.793 Z M18.897,49.793 C18.897,49.355 19.172,49.014 19.638,49.014 C20.075,49.014 20.349,49.301 20.349,49.738 C20.349,50.178 20.061,50.518 19.596,50.518 C19.172,50.518 18.897,50.23 18.897,49.793 L18.897,49.793 Z M23.741,56.127 C23.741,53.363 22.66,51.982 20.923,51.982 C19.186,51.982 18.078,53.363 18.078,56.127 C18.078,58.891 19.159,60.271 20.895,60.271 C22.634,60.271 23.741,58.891 23.741,56.127 L23.741,56.127 Z M16.601,56.264 C16.601,53.158 18.503,51.365 20.923,51.365 C23.645,51.365 25.22,53.283 25.22,55.99 C25.22,59.096 23.317,60.887 20.895,60.887 C18.174,60.887 16.601,58.973 16.601,56.264 L16.601,56.264 Z" id="Fill-2" fill="#1A1918" sketch:type="MSShapeGroup"></path>
            <path d="M28.063,60.285 L29.528,60.219 L29.583,60.162 C29.597,59.656 29.624,57.893 29.624,56.045 C29.624,54.199 29.624,52.68 29.583,52.201 L29.541,52.133 L27.913,52.133 C27.626,52.133 27.284,52.625 26.724,54.281 L26.45,54.281 L26.56,51.285 L26.806,51.285 L27.202,51.516 L33.346,51.516 L33.741,51.285 L33.988,51.285 L34.097,54.281 L33.823,54.281 C33.249,52.611 32.921,52.133 32.634,52.133 L31.005,52.133 L30.965,52.201 C30.95,52.529 30.924,54.377 30.924,56.223 C30.924,58.07 30.95,59.67 30.965,60.162 L31.019,60.219 L32.524,60.285 L32.524,60.752 L28.063,60.752 L28.063,60.285" id="Fill-3" fill="#1A1918" sketch:type="MSShapeGroup"></path>
            <path d="M35.738,60.285 L37.079,60.219 L37.134,60.162 C37.147,59.535 37.175,57.893 37.175,56.045 C37.175,54.199 37.147,52.652 37.134,52.105 L37.079,52.051 L35.738,51.982 L35.738,51.516 L41.744,51.516 L42.278,51.285 L42.483,51.285 L42.579,54.281 L42.306,54.281 C41.813,52.898 41.374,52.215 41.144,52.201 L38.558,52.064 L38.516,52.133 C38.503,52.762 38.476,54.213 38.476,55.744 C39.091,55.744 40.431,55.703 40.786,55.676 L40.842,55.621 L41.333,54.664 L41.593,54.664 C41.58,55.047 41.567,55.635 41.567,56.004 C41.567,56.359 41.58,57.125 41.593,57.537 L41.333,57.537 L40.842,56.4 L40.786,56.346 C40.362,56.332 39.146,56.307 38.476,56.307 C38.476,58.043 38.503,59.437 38.516,60.135 L38.558,60.203 L41.348,60.055 C41.58,60.039 42.195,59.479 42.688,57.865 L43.003,57.865 C42.825,60.531 42.784,60.752 42.552,60.752 L35.738,60.752 L35.738,60.285" id="Fill-4" fill="#1A1918" sketch:type="MSShapeGroup"></path>
            <path d="M50.91,58.125 C50.91,56.826 50.021,56.318 48.817,56.318 L47.38,56.318 C47.367,58.057 47.407,59.437 47.422,60.162 L47.489,60.219 C47.75,60.232 47.997,60.232 48.161,60.232 C50.008,60.232 50.91,59.465 50.91,58.125 L50.91,58.125 Z M48.242,55.717 C49.856,55.717 50.268,54.951 50.268,53.896 C50.268,53.172 50.008,52.625 49.446,52.338 C49.091,52.146 48.584,52.037 47.831,52.037 C47.763,52.037 47.612,52.037 47.477,52.051 L47.422,52.119 C47.407,52.83 47.367,54.17 47.38,55.717 L48.242,55.717 L48.242,55.717 Z M44.644,60.285 L45.985,60.219 L46.039,60.162 C46.054,59.684 46.081,57.893 46.081,56.045 C46.081,54.199 46.054,52.707 46.039,52.105 L45.985,52.051 L44.644,51.982 L44.644,51.516 C45.657,51.516 46.819,51.49 47.627,51.49 C48.625,51.49 49.392,51.572 50.008,51.764 C51.087,52.105 51.745,52.803 51.745,53.803 C51.745,54.979 50.966,55.676 50.075,55.895 L50.075,55.922 C51.524,55.99 52.388,56.838 52.388,57.947 C52.388,59.807 50.718,60.779 48.064,60.779 C47.175,60.779 45.739,60.752 44.644,60.752 L44.644,60.285 L44.644,60.285 Z" id="Fill-5" fill="#1A1918" sketch:type="MSShapeGroup"></path>
            <path d="M61.442,56.127 C61.442,53.363 60.362,51.982 58.626,51.982 C56.888,51.982 55.78,53.363 55.78,56.127 C55.78,58.891 56.86,60.271 58.599,60.271 C60.335,60.271 61.442,58.891 61.442,56.127 L61.442,56.127 Z M54.302,56.264 C54.302,53.158 56.204,51.365 58.626,51.365 C61.349,51.365 62.921,53.283 62.921,55.99 C62.921,59.096 61.019,60.887 58.599,60.887 C55.876,60.887 54.302,58.973 54.302,56.264 L54.302,56.264 Z" id="Fill-6" fill="#1A1918" sketch:type="MSShapeGroup"></path>
            <path d="M70.157,53.896 C70.157,53.145 69.829,52.584 69.214,52.297 C68.872,52.133 68.446,52.037 67.585,52.037 L67.134,52.037 L67.093,52.078 C67.079,52.666 67.065,54.459 67.052,56.059 C69.433,55.99 70.157,55.225 70.157,53.896 L70.157,53.896 Z M64.288,60.285 L65.655,60.219 L65.712,60.162 C65.726,59.766 65.753,57.893 65.753,56.045 C65.753,54.199 65.726,52.721 65.712,52.105 L65.655,52.051 L64.288,51.982 L64.288,51.516 C65.521,51.516 66.833,51.49 67.532,51.49 C68.612,51.49 69.241,51.559 69.747,51.709 C71.061,52.105 71.636,52.953 71.636,53.885 C71.636,55.238 70.718,55.881 69.597,56.236 L69.597,56.264 C69.952,56.674 70.567,57.797 71.36,59.191 C71.704,59.795 72.032,60.244 72.483,60.271 L72.784,60.285 L72.784,60.752 L70.731,60.752 L70.677,60.697 C70.171,59.67 69.815,58.836 68.954,57.303 C68.774,56.99 68.612,56.73 68.407,56.496 C67.915,56.566 67.448,56.592 67.052,56.592 C67.038,58.221 67.079,59.752 67.093,60.162 L67.147,60.219 L68.407,60.285 L68.407,60.752 L64.288,60.752 L64.288,60.285 L64.288,60.285 Z" id="Fill-7" fill="#1A1918" sketch:type="MSShapeGroup"></path>
            <path d="M73.81,56.127 C73.81,53.131 75.835,51.365 78.501,51.365 C79.515,51.365 80.102,51.531 80.622,51.682 L81.073,51.285 L81.278,51.285 L81.374,54.281 L81.087,54.281 C80.403,52.447 79.433,51.928 78.421,51.928 C76.833,51.928 75.288,53.117 75.288,55.99 C75.288,58.234 76.409,60.271 78.735,60.271 C79.405,60.271 80.13,60.08 80.13,59.863 C80.13,59.396 80.144,58.152 80.102,57.098 L80.048,57.043 L78.708,56.975 L78.708,56.512 L82.538,56.512 L82.538,56.975 L81.552,57.043 L81.499,57.098 C81.47,57.973 81.456,58.959 81.47,60.012 C81.306,60.354 79.993,60.887 78.612,60.887 C75.821,60.887 73.81,59.15 73.81,56.127" id="Fill-8" fill="#1A1918" sketch:type="MSShapeGroup"></path>
            <g id="Group-12">
                <mask id="mask-2" sketch:name="Clip 10" fill="white">
                    <use xlink:href="#path-1"></use>
                </mask>
                <g id="Clip-10"></g>
                <path d="M83.974,57.865 L84.29,57.865 C84.767,59.602 85.546,60.326 86.505,60.326 C87.626,60.326 88.337,59.574 88.337,58.59 C88.337,56.209 84.138,56.811 84.138,53.803 C84.138,52.529 85.138,51.365 86.874,51.365 C87.763,51.365 88.476,51.641 88.626,51.682 L89.034,51.285 L89.294,51.285 L89.378,54.281 L89.089,54.281 C88.515,52.611 87.763,51.928 86.833,51.928 C86.026,51.928 85.329,52.461 85.329,53.363 C85.329,55.648 89.597,55.293 89.597,58.18 C89.597,59.561 88.558,60.887 86.423,60.887 C85.835,60.887 85.138,60.752 84.534,60.354 L84.261,60.887 L83.974,60.887 L83.974,57.865" id="Fill-9" fill="#1A1918" sketch:type="MSShapeGroup" mask="url(#mask-2)"></path>
                <path d="M1.382,73.58 C1.382,73.061 1.396,72.746 1.396,71.393 C1.396,70.311 1.382,69.449 1.368,68.219 L1.313,68.164 L0,68.094 L0,67.629 L3.913,67.629 L3.913,68.094 L2.805,68.164 L2.749,68.219 C2.736,69.244 2.724,71.459 2.724,73.525 C2.724,75.248 3.119,76.412 4.938,76.412 C6.84,76.412 7.387,75.303 7.387,73.266 C7.387,71.486 7.36,69.559 7.333,68.219 L7.278,68.164 L6.019,68.094 L6.019,67.629 L9.645,67.629 L9.645,68.094 L8.304,68.164 L8.249,68.219 C8.208,69.682 8.208,71.691 8.223,73.389 C8.235,75.742 7.127,77 4.829,77 C2.572,77 1.382,75.838 1.382,73.58" id="Fill-11" fill="#1A1918" sketch:type="MSShapeGroup" mask="url(#mask-2)"></path>
            </g>
            <path d="M10.875,76.398 L12.216,76.33 L12.27,76.275 C12.311,74.811 12.311,73.73 12.311,72.363 C12.311,70.994 12.311,70.242 12.27,68.219 L12.216,68.164 L10.875,68.094 L10.875,67.629 L13.489,67.629 C15.157,69.969 17.06,72.703 18.428,74.66 L18.454,74.66 C18.428,72.035 18.399,69.559 18.372,68.219 L18.317,68.164 L17.06,68.094 L17.06,67.629 L20.685,67.629 L20.685,68.094 L19.343,68.164 L19.29,68.219 C19.249,69.682 19.249,70.762 19.249,74.195 L19.249,76.932 L18.577,76.932 C16.882,74.523 14.856,71.691 13.133,69.23 L13.106,69.23 C13.12,72.432 13.16,74.906 13.188,76.275 L13.241,76.33 L14.501,76.398 L14.501,76.863 L10.875,76.863 L10.875,76.398" id="Fill-13" fill="#1A1918" sketch:type="MSShapeGroup"></path>
            <g id="Group-17">
                <mask id="mask-4" sketch:name="Clip 15" fill="white">
                    <use xlink:href="#path-3"></use>
                </mask>
                <g id="Clip-15"></g>
                <path d="M22.325,76.398 L23.666,76.33 L23.721,76.275 C23.749,75.852 23.763,74.004 23.763,72.158 C23.763,70.311 23.749,68.684 23.721,68.219 L23.666,68.164 L22.325,68.094 L22.325,67.629 L26.485,67.629 L26.485,68.094 L25.157,68.164 L25.102,68.219 C25.075,68.586 25.061,70.488 25.061,72.334 C25.061,74.182 25.089,75.811 25.102,76.275 L25.157,76.33 L26.485,76.398 L26.485,76.863 L22.325,76.863 L22.325,76.398" id="Fill-14" fill="#1A1918" sketch:type="MSShapeGroup" mask="url(#mask-4)"></path>
                <path d="M28.468,68.135 L27.647,68.094 L27.647,67.629 L31.231,67.629 L31.231,68.094 L30.015,68.148 L29.959,68.203 C30.726,70.187 31.628,72.582 32.531,74.893 L32.56,74.893 C33.229,73.033 34.392,69.723 34.843,68.189 L34.802,68.148 L33.694,68.094 L33.694,67.629 L36.718,67.629 L36.718,68.094 L35.924,68.135 C35.213,69.941 33.57,74.195 32.489,77 L32.121,77 C30.712,73.58 29.495,70.598 28.468,68.135" id="Fill-16" fill="#1A1918" sketch:type="MSShapeGroup" mask="url(#mask-4)"></path>
            </g>
            <path d="M37.742,76.398 L39.083,76.33 L39.138,76.275 C39.151,75.646 39.179,74.004 39.179,72.158 C39.179,70.311 39.151,68.766 39.138,68.219 L39.083,68.164 L37.742,68.094 L37.742,67.629 L43.749,67.629 L44.282,67.396 L44.487,67.396 L44.583,70.393 L44.31,70.393 C43.816,69.01 43.38,68.326 43.147,68.312 L40.561,68.176 L40.52,68.244 C40.507,68.875 40.479,70.324 40.479,71.855 C41.095,71.855 42.435,71.814 42.79,71.787 L42.846,71.734 L43.337,70.775 L43.599,70.775 C43.585,71.158 43.571,71.746 43.571,72.115 C43.571,72.473 43.585,73.238 43.599,73.648 L43.337,73.648 L42.846,72.514 L42.79,72.459 C42.366,72.443 41.149,72.418 40.479,72.418 C40.479,74.156 40.507,75.551 40.52,76.248 L40.561,76.316 L43.352,76.166 C43.585,76.152 44.199,75.592 44.692,73.977 L45.007,73.977 C44.829,76.645 44.788,76.863 44.556,76.863 L37.742,76.863 L37.742,76.398" id="Fill-18" fill="#1A1918" sketch:type="MSShapeGroup"></path>
            <g id="Group-22">
                <mask id="mask-6" sketch:name="Clip 20" fill="white">
                    <use xlink:href="#path-5"></use>
                </mask>
                <g id="Clip-20"></g>
                <path d="M52.517,70.01 C52.517,69.258 52.19,68.695 51.573,68.408 C51.231,68.244 50.808,68.148 49.945,68.148 L49.493,68.148 L49.452,68.189 C49.438,68.777 49.426,70.57 49.411,72.172 C51.792,72.104 52.517,71.336 52.517,70.01 L52.517,70.01 Z M46.648,76.398 L48.017,76.33 L48.071,76.275 C48.085,75.879 48.112,74.004 48.112,72.158 C48.112,70.311 48.085,68.832 48.071,68.219 L48.017,68.164 L46.648,68.094 L46.648,67.629 C47.88,67.629 49.192,67.602 49.891,67.602 C50.972,67.602 51.601,67.67 52.106,67.82 C53.419,68.219 53.995,69.066 53.995,69.996 C53.995,71.35 53.077,71.994 51.956,72.35 L51.956,72.377 C52.312,72.787 52.927,73.908 53.722,75.303 C54.063,75.906 54.392,76.357 54.843,76.385 L55.144,76.398 L55.144,76.863 L53.093,76.863 L53.038,76.809 C52.53,75.783 52.175,74.947 51.313,73.416 C51.136,73.102 50.972,72.842 50.767,72.609 C50.273,72.678 49.809,72.703 49.411,72.703 C49.397,74.332 49.438,75.865 49.452,76.275 L49.507,76.33 L50.767,76.398 L50.767,76.863 L46.648,76.863 L46.648,76.398 L46.648,76.398 Z" id="Fill-19" fill="#1A1918" sketch:type="MSShapeGroup" mask="url(#mask-6)"></path>
                <path d="M56.647,73.977 L56.964,73.977 C57.442,75.715 58.222,76.439 59.179,76.439 C60.3,76.439 61.013,75.688 61.013,74.701 C61.013,72.322 56.811,72.924 56.811,69.914 C56.811,68.643 57.812,67.479 59.548,67.479 C60.438,67.479 61.149,67.752 61.3,67.793 L61.71,67.396 L61.97,67.396 L62.052,70.393 L61.765,70.393 C61.19,68.725 60.438,68.039 59.507,68.039 C58.7,68.039 58.003,68.572 58.003,69.475 C58.003,71.76 62.271,71.404 62.271,74.291 C62.271,75.672 61.231,77 59.097,77 C58.509,77 57.812,76.863 57.21,76.467 L56.935,77 L56.647,77 L56.647,73.977" id="Fill-21" fill="#1A1918" sketch:type="MSShapeGroup" mask="url(#mask-6)"></path>
            </g>
            <path d="M64.255,76.398 L65.595,76.33 L65.649,76.275 C65.677,75.852 65.69,74.004 65.69,72.158 C65.69,70.311 65.677,68.684 65.649,68.219 L65.595,68.164 L64.255,68.094 L64.255,67.629 L68.413,67.629 L68.413,68.094 L67.087,68.164 L67.03,68.219 C67.005,68.586 66.991,70.488 66.991,72.334 C66.991,74.182 67.019,75.811 67.03,76.275 L67.087,76.33 L68.413,76.398 L68.413,76.863 L64.255,76.863 L64.255,76.398" id="Fill-23" fill="#1A1918" sketch:type="MSShapeGroup"></path>
            <path d="M71.669,76.398 L73.132,76.33 L73.188,76.275 C73.2,75.77 73.227,74.004 73.227,72.158 C73.227,70.311 73.227,68.791 73.188,68.312 L73.147,68.244 L71.519,68.244 C71.231,68.244 70.888,68.738 70.329,70.393 L70.056,70.393 L70.163,67.396 L70.411,67.396 L70.808,67.629 L76.95,67.629 L77.345,67.396 L77.593,67.396 L77.702,70.393 L77.429,70.393 C76.854,68.725 76.526,68.244 76.237,68.244 L74.61,68.244 L74.569,68.312 C74.556,68.643 74.528,70.488 74.528,72.334 C74.528,74.182 74.556,75.783 74.569,76.275 L74.624,76.33 L76.128,76.398 L76.128,76.863 L71.669,76.863 L71.669,76.398" id="Fill-24" fill="#1A1918" sketch:type="MSShapeGroup"></path>
            <path d="M79.343,76.398 L80.685,76.33 L80.739,76.275 C80.753,75.646 80.78,74.004 80.78,72.158 C80.78,70.311 80.753,68.766 80.739,68.219 L80.685,68.164 L79.343,68.094 L79.343,67.629 L85.349,67.629 L85.882,67.396 L86.087,67.396 L86.183,70.393 L85.909,70.393 C85.417,69.01 84.979,68.326 84.747,68.312 L82.161,68.176 L82.12,68.244 C82.106,68.875 82.079,70.324 82.079,71.855 C82.694,71.855 84.036,71.814 84.392,71.787 L84.446,71.734 L84.938,70.775 L85.198,70.775 C85.185,71.158 85.171,71.746 85.171,72.115 C85.171,72.473 85.185,73.238 85.198,73.648 L84.938,73.648 L84.446,72.514 L84.392,72.459 C83.968,72.443 82.751,72.418 82.079,72.418 C82.079,74.156 82.106,75.551 82.12,76.248 L82.161,76.316 L84.952,76.166 C85.185,76.152 85.8,75.592 86.294,73.977 L86.606,73.977 C86.431,76.645 86.388,76.863 86.157,76.863 L79.343,76.863 L79.343,76.398" id="Fill-25" fill="#1A1918" sketch:type="MSShapeGroup"></path>
            <path d="M89.862,76.398 L91.327,76.33 L91.382,76.275 C91.396,75.77 91.423,74.004 91.423,72.158 C91.423,70.311 91.423,68.791 91.382,68.312 L91.341,68.244 L89.712,68.244 C89.425,68.244 89.083,68.738 88.522,70.393 L88.249,70.393 L88.358,67.396 L88.604,67.396 L89.001,67.629 L95.144,67.629 L95.54,67.396 L95.786,67.396 L95.896,70.393 L95.622,70.393 C95.048,68.725 94.72,68.244 94.433,68.244 L92.804,68.244 L92.763,68.312 C92.751,68.643 92.722,70.488 92.722,72.334 C92.722,74.182 92.751,75.783 92.763,76.275 L92.819,76.33 L94.323,76.398 L94.323,76.863 L89.862,76.863 L89.862,76.398" id="Fill-26" fill="#1A1918" sketch:type="MSShapeGroup"></path>
            <g id="Group-30">
                <mask id="mask-8" sketch:name="Clip 28" fill="white">
                    <use xlink:href="#path-7"></use>
                </mask>
                <g id="Clip-28"></g>
                <path d="M47.595,35.792 C39.634,35.62 33.298,29.001 33.469,21.04 C33.553,17.183 35.134,13.589 37.919,10.921 C40.706,8.253 44.364,6.83 48.22,6.914 C56.183,7.085 62.519,13.704 62.347,21.666 C62.263,25.522 60.683,29.117 57.896,31.785 C55.11,34.452 51.452,35.876 47.595,35.792 L47.595,35.792 Z M37.097,10.063 C34.082,12.951 32.371,16.839 32.281,21.014 C32.095,29.63 38.954,36.793 47.569,36.981 C51.743,37.071 55.702,35.531 58.718,32.644 C61.733,29.755 63.444,25.866 63.536,21.691 C63.722,13.074 56.862,5.912 48.246,5.726 C44.073,5.635 40.114,7.175 37.097,10.063 L37.097,10.063 Z" id="Fill-27" fill="#006095" sketch:type="MSShapeGroup" mask="url(#mask-8)"></path>
                <path d="M47.472,41.51 C36.356,41.27 27.511,32.031 27.752,20.916 C27.868,15.532 30.074,10.516 33.964,6.792 C37.853,3.066 42.962,1.08 48.345,1.196 C53.728,1.313 58.745,3.519 62.47,7.409 C66.194,11.298 68.181,16.405 68.065,21.789 C67.823,32.904 58.585,41.75 47.472,41.51 L47.472,41.51 Z M33.304,6.101 C29.229,10.002 26.919,15.256 26.796,20.895 C26.544,32.538 35.809,42.213 47.45,42.466 C59.091,42.718 68.769,33.451 69.019,21.81 C69.142,16.171 67.062,10.822 63.161,6.747 C59.257,2.673 54.005,0.363 48.366,0.24 C42.727,0.118 37.377,2.199 33.304,6.101 L33.304,6.101 Z" id="Fill-29" fill="#006095" sketch:type="MSShapeGroup" mask="url(#mask-8)"></path>
            </g>
            <path d="M52.11,33.91 C44.27,35.316 37.987,32.266 36.838,28.502 C36.095,26.067 37.175,25.539 37.347,23.781 C35.99,24.504 35.739,22.622 36.938,22.46 C38.206,22.29 38.774,23.622 38.157,25.395 C37.271,27.941 38.828,29.124 39.267,28.992 C39.285,28.859 39.444,28.534 39.521,28.391 C38.454,27.027 38.899,25.039 40.72,24.876 C41.462,24.81 41.388,25.35 40.873,25.425 C39.477,25.627 39.543,27.186 40.124,27.384 C40.226,27.384 40.345,27.357 40.448,27.253 C40.424,26.936 40.644,26.484 41.006,26.574 C41.81,26.776 41.503,27.801 40.95,27.885 C40.743,28.516 40.347,29.395 40.433,29.851 C40.517,30.306 40.837,30.396 41.099,30.133 C41.294,29.939 41.387,29.469 41.512,28.959 C41.379,28.384 41.659,27.947 42.147,28.154 C42.485,28.298 42.522,28.817 42.19,29.22 C42.147,29.714 41.931,30.275 41.978,30.654 C42.026,31.034 42.544,31.008 42.731,30.802 C42.917,30.597 43.11,29.256 43.185,28.962 C42.896,28.705 43.011,27.914 43.607,27.867 C44.309,27.811 44.146,28.766 43.947,29.007 C44.145,29.753 43.825,30.593 43.968,30.926 C44.11,31.26 44.657,31.339 44.904,31.067 C45.151,30.793 44.84,30.218 44.978,29.546 C44.741,28.967 45.017,28.502 45.362,28.475 C46.145,28.412 45.922,29.117 45.778,29.613 C45.817,30.12 45.904,30.726 46.08,31.194 C46.193,31.497 46.696,31.566 46.862,31.176 C46.968,30.933 46.729,30.241 46.673,29.753 C46.333,28.963 46.62,28.748 46.925,28.723 C47.212,28.699 47.604,28.861 47.553,29.641 C47.711,30.167 47.847,30.801 48.042,31.215 C48.13,31.545 48.533,31.579 48.661,31.236 C48.786,30.895 48.55,30.491 48.298,29.94 C47.735,29.395 48.246,28.974 48.567,28.948 C48.886,28.922 49.386,29.009 49.281,29.859 C49.454,30.375 49.568,30.846 49.683,31.12 C49.816,31.435 50.255,31.473 50.442,31.266 C50.632,31.058 50.27,30.694 50.177,30.247 C49.753,29.835 49.831,29.272 50.313,29.234 C50.561,29.214 51.044,29.242 50.999,29.964 C51.142,30.277 51.144,30.675 51.351,31.015 C51.604,31.429 51.995,31.272 52.151,30.9 C52.306,30.525 51.335,29.44 52.093,29.379 C52.853,29.32 52.985,30.315 53.231,30.554 C53.477,30.791 53.667,30.633 53.782,30.503 C53.981,30.284 53.452,29.687 53.821,29.518 C54.567,29.176 54.554,30.027 55.081,30.036 C57.39,30.072 59.208,26.283 58.938,25.213 C58.165,24.755 58.437,23.611 59.083,23.599 C60.675,23.57 60.45,25.818 59.243,28.428 C57.661,31.85 53.771,33.611 52.11,33.91" id="Fill-31" fill="#006095" sketch:type="MSShapeGroup"></path>
            <path d="M54.165,15.271 C53.909,15.518 53.099,15.57 52.685,15.328 C52.341,15.126 52.263,13.62 52.435,13.212 C52.608,12.805 54.378,12.789 54.519,13.068 C54.659,13.348 54.421,15.024 54.165,15.271 L54.165,15.271 Z M50.993,13.408 C51.05,13.623 51.261,14.573 51.31,15.144 C51.337,15.357 51.261,15.616 51.134,15.665 C50.815,15.786 50.286,15.757 49.999,15.647 C49.683,15.526 49.896,14.268 48.737,14.043 C48.897,13.931 48.981,13.814 49.013,13.538 C49.034,13.357 49.257,13.162 49.53,13.129 C50.06,13.069 50.391,13.053 50.569,13.06 C50.746,13.066 50.937,13.188 50.993,13.408 L50.993,13.408 Z M48.751,19.651 C48.075,19.636 47.822,15.414 48.521,15.428 C49.147,15.441 49.218,19.66 48.751,19.651 L48.751,19.651 Z M55.472,15.901 C55.446,15.891 55.44,15.847 55.446,15.827 C55.802,14.458 56.061,13.856 56.19,12.491 C56.222,12.165 55.989,11.901 55.772,11.847 C54.929,11.636 54.54,11.644 54.214,11.619 C54.179,11.616 54.101,11.601 54.077,11.554 C53.979,11.356 53.835,10.76 53.833,10.458 C54.327,9.413 53.446,9.052 52.618,9.065 C52.073,9.039 51.519,9.29 51.454,9.698 C51.378,10.488 52.253,10.777 52.565,10.805 C52.618,10.917 52.745,11.469 52.767,11.688 C52.769,11.717 52.743,11.749 52.704,11.749 C51.304,11.775 49.488,12.02 48.567,12.09 C48.435,12.111 48.372,12.035 48.345,11.958 C48.174,11.486 47.444,9.257 48.813,9.301 C49.626,9.327 50.306,8.662 49.534,8.156 C49.337,8.025 48.298,7.898 47.737,7.995 C47.27,8.076 47.046,8.602 47.103,9.061 C47.196,9.781 45.401,9.855 44.871,9.641 C44.493,9.487 44.027,9.036 43.864,8.746 C43.52,8.13 42.923,8.6 43.032,8.93 C43.775,11.17 46.147,10.814 46.767,10.846 C46.798,10.848 46.851,10.888 46.854,10.905 C47.005,11.714 47.487,12.568 47.486,12.883 C47.19,13.211 47.316,13.913 47.733,14.034 C47.224,14.522 46.996,16.228 47.078,17.643 C47.182,19.446 47.909,21.195 49.056,21.006 C50.514,20.768 49.939,17.396 50.294,17.108 C50.471,16.965 50.944,17.006 51.118,17.026 C51.157,17.031 51.179,17.076 51.177,17.098 C51.06,18.421 50.747,20.543 50.67,21.109 C50.59,21.686 50.543,21.984 50.835,22.517 C51.155,23.104 51.741,24.97 51.056,26.944 C51.035,27.021 50.971,27.046 50.948,27.052 C50.33,27.193 50.001,27.386 49.776,27.539 C49.532,27.705 49.271,28.05 49.448,28.258 C49.708,28.495 51.372,28.403 51.886,27.634 C51.897,27.615 51.933,27.542 51.938,27.526 C52.116,27.031 52.339,26.669 52.507,26.351 C53.274,24.886 53.386,23.086 52.333,22.273 C52.038,22.046 51.735,21.829 52.024,21.259 C52.581,20.156 52.64,18.952 52.71,17.935 C52.737,17.525 53.419,17.291 53.675,17.677 C54.313,19.188 53.812,20.49 53.802,21.026 C53.79,21.564 53.993,21.812 54.061,22.134 C54.497,24.104 54.278,25.698 53.884,27.73 C53.882,27.774 53.849,27.804 53.808,27.817 C53.347,27.972 53.063,28.068 52.774,28.27 C52.481,28.475 52.366,28.737 52.493,28.88 C52.88,29.316 54.63,28.843 54.761,28.342 C55.089,27.096 57.446,24.208 55.806,22.364 C55.058,21.522 55.058,21.86 55.05,21.435 C55.046,21.231 55.519,20.114 55.638,19.25 C55.763,18.35 55.173,17.494 55.319,16.997 C55.325,16.982 55.362,16.958 55.378,16.961 C55.622,17.008 56.198,17.162 56.571,17.375 C56.686,17.439 56.886,17.388 56.915,16.942 C56.946,16.457 55.718,15.989 55.472,15.901 L55.472,15.901 Z" id="Fill-32" fill="#006095" sketch:type="MSShapeGroup"></path>
            <path d="M40.673,22.071 C40.435,21.938 40.62,21.459 40.966,21.407 C41.209,21.369 42.031,21.27 42.317,21.395 C42.538,21.491 42.694,21.954 42.569,22.091 C42.333,22.352 41.015,22.261 40.673,22.071 L40.673,22.071 Z M37.923,20.549 C37.9,20.264 38.286,19.942 38.581,20.004 C38.817,20.054 39.55,20.827 39.583,21.008 C39.645,21.34 39.38,21.603 39.158,21.619 C38.813,21.644 37.95,20.86 37.923,20.549 L37.923,20.549 Z M38.069,18.994 C37.901,19.194 37.524,19.32 37.343,19.175 C37.069,18.957 36.987,18.064 37.164,17.685 C37.284,17.429 37.905,17.288 38.021,17.58 C38.101,17.78 38.193,18.847 38.069,18.994 L38.069,18.994 Z M38.28,16.461 C37.979,16.612 37.7,16.407 37.669,16.036 C37.638,15.665 38.514,14.757 38.829,14.844 C38.984,14.886 39.216,15.18 39.19,15.442 C39.174,15.625 38.457,16.374 38.28,16.461 L38.28,16.461 Z M43.017,19.692 C42.702,19.556 41.888,18.483 42.178,18.192 C42.45,17.919 43.594,17.339 43.778,17.511 C44.488,18.172 43.632,19.961 43.017,19.692 L43.017,19.692 Z M39.685,19.476 C39.685,19.269 40.757,18.541 41.178,18.699 C41.517,18.825 42.05,20.161 41.761,20.296 C40.983,20.663 39.685,19.817 39.685,19.476 L39.685,19.476 Z M39.951,16.215 C40.104,16.183 40.817,17.289 40.687,17.698 C40.576,18.044 39.261,18.533 39.13,18.402 C38.729,18.001 39.079,16.398 39.951,16.215 L39.951,16.215 Z M43.185,16.506 C43.185,16.848 41.995,17.417 41.757,17.278 C41.409,17.073 40.7,16.021 40.849,15.838 C41.36,15.202 43.185,15.971 43.185,16.506 L43.185,16.506 Z M42.163,14.175 C42.237,14.335 42.326,14.55 42.159,14.735 C42.019,14.889 40.757,14.932 40.567,14.919 C40.169,14.893 39.983,14.486 40.115,14.281 C40.354,13.909 42.024,13.876 42.163,14.175 L42.163,14.175 Z M44.939,15.79 C44.897,16.011 44.534,16.096 44.376,16.078 C44.183,16.056 43.358,15.411 43.306,15.185 C43.236,14.89 43.436,14.701 43.625,14.653 C44.138,14.525 44.999,15.473 44.939,15.79 L44.939,15.79 Z M45.645,18.774 C45.458,18.899 45.104,18.92 44.954,18.695 C44.852,18.54 44.819,17.395 44.888,17.225 C44.958,17.048 45.343,16.917 45.56,17.038 C45.81,17.174 45.949,18.572 45.645,18.774 L45.645,18.774 Z M44.423,19.918 C44.616,19.9 44.981,19.944 45.087,20.21 C45.202,20.499 44.403,21.403 44.033,21.509 C43.807,21.574 43.468,21.233 43.53,20.896 C43.571,20.678 44.265,19.932 44.423,19.918 L44.423,19.918 Z M46.55,17.356 C46.418,15.759 44.929,13.649 42.753,13.288 C40.391,12.896 36.719,13.842 36.321,17.314 C35.91,20.906 38.661,23.575 41.962,23.322 C45.544,23.048 46.736,19.616 46.55,17.356 L46.55,17.356 Z" id="Fill-33" fill="#006095" sketch:type="MSShapeGroup"></path>
            <path d="M41.384,3.419 L41.281,4.225 L40.76,4.848 L41.565,4.951 L42.188,5.473 L42.29,4.667 L42.811,4.044 L42.007,3.941 L41.384,3.419" id="Fill-34" fill="#006095" sketch:type="MSShapeGroup"></path>
            <path d="M56.452,38.315 L55.798,37.835 L54.987,37.786 L55.464,37.129 L55.515,36.317 L56.169,36.799 L56.979,36.849 L56.501,37.504 L56.452,38.315" id="Fill-35" fill="#006095" sketch:type="MSShapeGroup"></path>
            <path d="M39.304,38.285 L39.96,37.807 L40.771,37.761 L40.296,37.102 L40.247,36.291 L39.591,36.77 L38.781,36.817 L39.257,37.474 L39.304,38.285" id="Fill-36" fill="#006095" sketch:type="MSShapeGroup"></path>
            <path d="M34.82,34.799 L35.646,33.831 C36.022,33.39 36.622,33.421 37.194,33.91 C37.77,34.401 37.899,34.991 37.524,35.432 L36.698,36.401 C36.597,36.52 36.593,36.586 36.728,36.702 L36.433,36.924 L35.636,36.245 L35.813,35.921 C35.948,36.037 36.014,36.022 36.114,35.904 L36.944,34.931 C37.108,34.738 37.093,34.502 36.836,34.283 C36.571,34.057 36.333,34.076 36.168,34.27 L35.339,35.242 C35.237,35.36 35.233,35.427 35.365,35.54 L35.073,35.766 L34.345,35.144 L34.519,34.818 C34.653,34.933 34.72,34.918 34.82,34.799" id="Fill-37" fill="#006095" sketch:type="MSShapeGroup"></path>
            <path d="M32.167,31.571 L33.913,30.262 L34.241,30.701 L33.694,32.548 C33.657,32.676 33.558,32.878 33.558,32.878 C33.558,32.878 33.716,32.732 33.794,32.673 L34.563,32.096 C34.685,32.005 34.71,31.942 34.602,31.8 L34.936,31.644 L35.464,32.346 L35.223,32.627 C35.116,32.484 35.046,32.486 34.925,32.578 L33.642,33.539 C33.517,33.632 33.497,33.697 33.604,33.839 L33.268,33.992 L32.795,33.361 L33.29,31.681 C33.331,31.55 33.434,31.345 33.434,31.345 C33.434,31.345 33.272,31.494 33.183,31.561 L32.527,32.053 C32.403,32.146 32.384,32.21 32.491,32.353 L32.157,32.508 L31.628,31.803 L31.87,31.526 C31.977,31.668 32.042,31.665 32.167,31.571" id="Fill-38" fill="#006095" sketch:type="MSShapeGroup"></path>
            <path d="M32.839,28.224 L33.292,29.142 L33.003,29.37 C32.924,29.211 32.854,29.2 32.719,29.267 L31.281,29.979 C31.142,30.048 31.111,30.107 31.19,30.268 L30.833,30.359 L30.38,29.441 L30.669,29.213 C30.748,29.373 30.813,29.385 30.953,29.316 L32.391,28.604 C32.526,28.538 32.56,28.476 32.481,28.316 L32.839,28.224" id="Fill-39" fill="#006095" sketch:type="MSShapeGroup"></path>
            <path d="M29.579,25.478 L31.941,25.691 L32.149,26.396 L30.278,27.845 C30.142,27.949 30.126,28.005 30.173,28.163 L29.804,28.189 L29.515,27.21 L29.839,27.031 C29.884,27.171 29.941,27.191 30.06,27.105 L30.964,26.425 C31.114,26.32 31.433,26.17 31.433,26.17 C31.433,26.17 31.081,26.209 30.897,26.199 L29.76,26.088 C29.608,26.078 29.576,26.143 29.618,26.288 L29.251,26.317 L28.994,25.447 L29.319,25.271 C29.366,25.434 29.407,25.463 29.579,25.478" id="Fill-40" fill="#006095" sketch:type="MSShapeGroup"></path>
            <path d="M31.326,21.779 L31.519,23.895 L31.167,24.007 C31.151,23.83 31.089,23.795 30.938,23.809 L29.343,23.955 C29.186,23.969 29.138,24.013 29.153,24.191 L28.786,24.144 L28.602,22.121 L29.255,22.062 L29.338,22.34 C29.128,22.39 29.085,22.453 29.112,22.759 L29.155,23.229 L29.815,23.169 L29.776,22.743 C29.761,22.561 29.724,22.497 29.581,22.51 L29.626,22.211 L30.278,22.151 L30.38,22.437 C30.233,22.451 30.208,22.52 30.226,22.702 L30.265,23.128 L30.982,23.062 L30.923,22.41 C30.897,22.126 30.812,22.081 30.614,22.062 L30.644,21.76 L31.326,21.779" id="Fill-41" fill="#006095" sketch:type="MSShapeGroup"></path>
            <path d="M29.153,19.204 L29.108,19.611 L29.892,19.698 L29.936,19.304 C29.97,19.008 29.836,18.836 29.597,18.809 C29.358,18.783 29.186,18.912 29.153,19.204 L29.153,19.204 Z M31.62,18.068 L31.53,18.878 C31.101,19.233 30.429,18.867 30.366,19.42 L30.33,19.748 L30.852,19.806 C31.003,19.823 31.064,19.794 31.084,19.617 L31.435,19.732 L31.321,20.741 L30.954,20.781 C30.974,20.599 30.921,20.558 30.771,20.541 L29.177,20.362 C29.026,20.345 28.964,20.379 28.944,20.556 L28.595,20.436 L28.749,19.055 C28.824,18.387 29.143,18.023 29.651,18.08 C29.983,18.118 30.194,18.32 30.284,18.675 C30.415,18.345 30.739,18.296 30.935,18.278 C31.161,18.258 31.24,18.222 31.264,18.014 L31.27,17.952 L31.62,18.068 L31.62,18.068 Z" id="Fill-42" fill="#006095" sketch:type="MSShapeGroup"></path>
            <path d="M32.188,16.305 C32.023,16.818 31.737,17.138 31.596,17.274 L31.078,16.949 L31.155,16.711 C31.481,16.713 31.687,16.452 31.774,16.181 C31.841,15.973 31.813,15.725 31.593,15.654 C31.402,15.593 31.27,15.71 31.058,16.114 C30.845,16.527 30.5,16.898 29.97,16.728 C29.453,16.561 29.31,16.005 29.499,15.416 C29.644,14.966 29.88,14.654 30.012,14.519 L30.501,14.831 L30.427,15.063 C30.141,15.093 29.972,15.329 29.903,15.541 C29.828,15.774 29.881,15.974 30.055,16.029 C30.224,16.084 30.349,15.96 30.505,15.66 C30.794,15.112 31.106,14.754 31.687,14.94 C32.255,15.124 32.374,15.728 32.188,16.305" id="Fill-43" fill="#006095" sketch:type="MSShapeGroup"></path>
            <path d="M33.405,13.355 L32.938,14.267 L32.583,14.17 C32.663,14.011 32.63,13.949 32.495,13.88 L31.069,13.148 C30.931,13.077 30.864,13.088 30.783,13.247 L30.497,13.015 L30.964,12.104 L31.319,12.201 C31.238,12.359 31.268,12.419 31.406,12.49 L32.833,13.222 C32.968,13.292 33.038,13.282 33.119,13.124 L33.405,13.355" id="Fill-44" fill="#006095" sketch:type="MSShapeGroup"></path>
            <path d="M33.532,9.579 C33.362,9.494 33.259,9.484 33.088,9.717 L32.93,9.933 L34.31,10.944 C34.432,11.034 34.499,11.04 34.604,10.896 L34.851,11.17 L34.251,11.989 L33.911,11.84 C34.02,11.693 33.994,11.63 33.872,11.541 L32.493,10.529 L32.335,10.745 C32.163,10.979 32.204,11.074 32.336,11.21 L32.116,11.413 L31.61,10.949 L33.061,8.969 L33.659,9.308 L33.532,9.579" id="Fill-45" fill="#006095" sketch:type="MSShapeGroup"></path>
            <path d="M35.33,7.822 C35.194,7.742 34.915,7.508 34.915,7.508 C34.915,7.508 35.116,7.821 35.184,7.959 L35.478,8.653 L35.992,8.173 L35.33,7.822 L35.33,7.822 Z M37.672,8.269 L36.937,8.956 L36.635,8.743 C36.732,8.652 36.741,8.589 36.599,8.515 L36.399,8.414 L35.684,9.083 L35.769,9.29 C35.832,9.443 35.905,9.424 36.009,9.327 L36.2,9.643 L35.565,10.235 L35.264,10.023 C35.381,9.914 35.398,9.855 35.331,9.697 L34.642,8.069 C34.597,7.97 34.532,7.939 34.405,8.058 L34.218,7.74 L35.276,6.752 L35.581,6.961 C35.45,7.083 35.468,7.14 35.569,7.19 L37.155,7.996 C37.3,8.073 37.36,8.065 37.481,7.953 L37.672,8.269 L37.672,8.269 Z" id="Fill-46" fill="#006095" sketch:type="MSShapeGroup"></path>
            <path d="M39.208,7.324 C38.751,7.608 38.325,7.668 38.129,7.68 L37.945,7.096 L38.157,6.965 C38.405,7.178 38.731,7.112 38.974,6.962 C39.159,6.847 39.298,6.64 39.176,6.443 C39.069,6.273 38.894,6.277 38.47,6.446 C38.04,6.624 37.537,6.684 37.244,6.21 C36.958,5.749 37.208,5.231 37.735,4.905 C38.136,4.656 38.519,4.571 38.706,4.554 L38.878,5.108 L38.669,5.237 C38.433,5.075 38.15,5.145 37.962,5.263 C37.753,5.392 37.664,5.578 37.761,5.733 C37.854,5.884 38.028,5.871 38.343,5.744 C38.919,5.513 39.388,5.442 39.71,5.96 C40.024,6.467 39.724,7.005 39.208,7.324" id="Fill-47" fill="#006095" sketch:type="MSShapeGroup"></path>
            <path d="M46.919,3.693 C46.733,3.718 46.702,3.781 46.722,3.927 L46.749,4.139 C46.769,4.28 46.805,4.311 46.897,4.299 L46.872,4.648 C46.483,4.727 46.417,4.898 45.82,4.979 C45.021,5.086 44.294,4.789 44.157,3.773 C44.031,2.842 44.572,2.288 45.442,2.171 C45.963,2.101 46.365,2.253 46.536,2.325 L46.464,2.955 L46.226,2.987 C46.108,2.71 45.854,2.628 45.571,2.666 C45.073,2.733 44.846,3.051 44.93,3.674 C45.015,4.301 45.28,4.544 45.77,4.478 C45.89,4.461 46.035,4.406 46.113,4.351 L46.067,4.015 C46.048,3.869 46.005,3.816 45.815,3.842 L45.767,3.849 L45.794,3.481 L46.845,3.339 L46.968,3.687 L46.919,3.693" id="Fill-48" fill="#006095" sketch:type="MSShapeGroup"></path>
            <path d="M49.435,2.576 C49.008,2.542 48.784,2.76 48.729,3.44 C48.675,4.119 48.86,4.371 49.286,4.405 C49.722,4.44 49.936,4.221 49.991,3.542 C50.046,2.862 49.869,2.611 49.435,2.576 L49.435,2.576 Z M49.247,4.902 C48.421,4.836 47.87,4.407 47.952,3.377 C48.036,2.347 48.647,2.012 49.474,2.079 C50.313,2.147 50.854,2.574 50.772,3.605 C50.688,4.634 50.085,4.97 49.247,4.902 L49.247,4.902 Z" id="Fill-49" fill="#006095" sketch:type="MSShapeGroup"></path>
            <path d="M53.782,3.721 C53.802,3.532 53.774,3.432 53.493,3.356 L53.235,3.285 L52.786,4.935 C52.745,5.081 52.765,5.147 52.936,5.193 L52.769,5.522 L51.788,5.254 L51.808,4.885 C51.983,4.933 52.032,4.887 52.073,4.741 L52.522,3.09 L52.265,3.02 C51.985,2.943 51.911,3.015 51.831,3.188 L51.563,3.055 L51.815,2.417 L54.185,3.064 L54.081,3.742 L53.782,3.721" id="Fill-50" fill="#006095" sketch:type="MSShapeGroup"></path>
            <path d="M56.651,7.231 L55.747,6.771 L55.839,6.413 C56.003,6.495 56.06,6.46 56.128,6.325 L56.407,5.777 L55.483,5.306 L55.204,5.854 C55.134,5.989 55.142,6.057 55.3,6.138 L55.067,6.425 L54.163,5.964 L54.255,5.606 C54.417,5.689 54.476,5.654 54.544,5.519 L55.272,4.089 C55.343,3.951 55.335,3.887 55.173,3.804 L55.409,3.519 L56.313,3.98 L56.218,4.335 C56.058,4.255 56.003,4.286 55.931,4.425 L55.706,4.866 L56.632,5.336 L56.856,4.896 C56.927,4.757 56.919,4.693 56.757,4.61 L56.991,4.325 L57.897,4.786 L57.8,5.142 C57.642,5.061 57.585,5.092 57.515,5.231 L56.788,6.66 C56.72,6.795 56.724,6.863 56.884,6.944 L56.651,7.231" id="Fill-51" fill="#006095" sketch:type="MSShapeGroup"></path>
            <path d="M59.87,6.8 C59.54,6.528 59.231,6.581 58.8,7.107 C58.366,7.633 58.374,7.945 58.704,8.217 C59.042,8.495 59.343,8.437 59.776,7.911 C60.208,7.384 60.208,7.078 59.87,6.8 L59.87,6.8 Z M58.388,8.603 C57.747,8.076 57.54,7.409 58.198,6.611 C58.854,5.814 59.548,5.889 60.188,6.415 C60.837,6.95 61.038,7.611 60.382,8.409 C59.724,9.207 59.038,9.137 58.388,8.603 L58.388,8.603 Z" id="Fill-52" fill="#006095" sketch:type="MSShapeGroup"></path>
            <path d="M61.911,9.722 L62.118,9.979 C62.288,10.19 62.47,10.204 62.626,10.078 C62.778,9.955 62.808,9.79 62.63,9.571 L62.421,9.311 L61.911,9.722 L61.911,9.722 Z M61.567,9.999 L60.95,10.496 L61.196,10.801 C61.384,11.033 61.597,11.05 61.784,10.899 C61.968,10.751 61.991,10.526 61.8,10.286 L61.567,9.999 L61.567,9.999 Z M60.917,11.123 L60.073,10.075 L60.304,9.787 C60.417,9.925 60.487,9.92 60.604,9.825 L61.853,8.819 C61.976,8.721 61.991,8.657 61.88,8.518 L62.21,8.354 L62.999,9.332 C63.423,9.86 63.472,10.312 63.099,10.613 C62.925,10.753 62.642,10.757 62.431,10.652 C62.563,10.993 62.458,11.295 62.222,11.485 C61.823,11.806 61.339,11.646 60.917,11.123 L60.917,11.123 Z" id="Fill-53" fill="#006095" sketch:type="MSShapeGroup"></path>
            <path d="M65.157,13.96 L64.024,14.54 C63.507,14.803 62.966,14.544 62.624,13.874 C62.28,13.199 62.386,12.604 62.901,12.341 L64.036,11.762 C64.175,11.691 64.204,11.631 64.124,11.473 L64.481,11.38 L64.958,12.312 L64.671,12.544 C64.589,12.385 64.524,12.374 64.386,12.445 L63.245,13.026 C63.021,13.141 62.944,13.365 63.099,13.667 C63.257,13.976 63.483,14.05 63.71,13.935 L64.849,13.354 C64.987,13.283 65.017,13.223 64.938,13.068 L65.294,12.971 L65.729,13.824 L65.444,14.06 C65.362,13.901 65.298,13.89 65.157,13.96" id="Fill-54" fill="#006095" sketch:type="MSShapeGroup"></path>
            <path d="M66.163,16.548 L66.06,16.152 L65.298,16.353 L65.397,16.737 C65.476,17.025 65.661,17.137 65.894,17.076 C66.126,17.014 66.239,16.832 66.163,16.548 L66.163,16.548 Z M64.274,18.499 L64.065,17.71 C64.339,17.224 65.097,17.323 64.954,16.785 L64.87,16.466 L64.362,16.601 C64.216,16.639 64.169,16.688 64.216,16.86 L63.847,16.879 L63.587,15.898 L63.915,15.728 C63.962,15.904 64.026,15.924 64.173,15.885 L65.724,15.476 C65.87,15.437 65.917,15.383 65.87,15.211 L66.239,15.196 L66.595,16.54 C66.767,17.19 66.601,17.644 66.106,17.775 C65.782,17.86 65.513,17.748 65.302,17.449 C65.298,17.804 65.015,17.967 64.839,18.055 C64.636,18.155 64.573,18.217 64.626,18.419 L64.644,18.479 L64.274,18.499 L64.274,18.499 Z" id="Fill-55" fill="#006095" sketch:type="MSShapeGroup"></path>
            <path d="M65.585,21.871 C65.577,21.684 65.517,21.646 65.37,21.654 L65.157,21.665 C65.015,21.671 64.979,21.704 64.985,21.798 L64.64,21.744 C64.593,21.349 64.429,21.268 64.397,20.667 C64.358,19.862 64.716,19.162 65.739,19.111 C66.679,19.065 67.185,19.651 67.227,20.528 C67.253,21.053 67.067,21.441 66.981,21.605 L66.36,21.48 L66.349,21.24 C66.634,21.146 66.737,20.9 66.724,20.615 C66.698,20.112 66.401,19.859 65.774,19.89 C65.142,19.921 64.878,20.166 64.901,20.66 C64.907,20.78 64.95,20.93 64.999,21.012 L65.337,20.996 C65.485,20.988 65.54,20.95 65.53,20.758 L65.528,20.709 L65.894,20.768 L65.944,21.826 L65.589,21.919 L65.585,21.871" id="Fill-56" fill="#006095" sketch:type="MSShapeGroup"></path>
            <path d="M64.099,24.963 L64.421,22.863 L64.788,22.838 C64.763,23.014 64.813,23.062 64.962,23.085 L66.548,23.328 C66.702,23.351 66.761,23.32 66.788,23.144 L67.132,23.277 L66.825,25.285 L66.179,25.186 L66.165,24.896 C66.38,24.897 66.437,24.847 66.483,24.543 L66.556,24.077 L65.899,23.976 L65.835,24.399 C65.808,24.58 65.827,24.651 65.97,24.672 L65.854,24.952 L65.206,24.853 L65.175,24.551 C65.321,24.573 65.362,24.512 65.39,24.332 L65.454,23.909 L64.741,23.799 L64.642,24.447 C64.599,24.729 64.671,24.793 64.858,24.858 L64.757,25.145 L64.099,24.963" id="Fill-57" fill="#006095" sketch:type="MSShapeGroup"></path>
            <path d="M64.989,29.127 L62.948,28.357 L63.142,27.845 L64.993,27.315 C65.122,27.277 65.345,27.252 65.345,27.252 C65.345,27.252 65.138,27.198 65.046,27.163 L64.146,26.823 C64.003,26.771 63.936,26.783 63.874,26.95 L63.563,26.751 L63.872,25.931 L64.239,25.983 C64.175,26.149 64.216,26.208 64.356,26.261 L65.858,26.827 C66.003,26.882 66.067,26.863 66.13,26.696 L66.44,26.899 L66.161,27.636 L64.479,28.121 C64.347,28.157 64.12,28.18 64.12,28.18 C64.12,28.18 64.331,28.236 64.435,28.275 L65.202,28.565 C65.349,28.62 65.413,28.601 65.476,28.435 L65.786,28.633 L65.476,29.458 L65.11,29.401 C65.173,29.234 65.136,29.183 64.989,29.127" id="Fill-58" fill="#006095" sketch:type="MSShapeGroup"></path>
            <path d="M61.88,30.141 C62.169,29.686 62.524,29.447 62.696,29.35 L63.116,29.794 L62.983,30.005 C62.667,29.922 62.403,30.123 62.251,30.364 C62.134,30.549 62.099,30.795 62.296,30.919 C62.464,31.027 62.62,30.946 62.929,30.608 C63.237,30.261 63.663,29.987 64.134,30.284 C64.593,30.575 64.595,31.149 64.263,31.673 C64.011,32.072 63.704,32.315 63.542,32.413 L63.147,31.989 L63.276,31.782 C63.561,31.825 63.784,31.639 63.903,31.451 C64.034,31.244 64.032,31.037 63.878,30.939 C63.728,30.844 63.577,30.933 63.349,31.185 C62.933,31.644 62.542,31.913 62.026,31.587 C61.521,31.268 61.556,30.653 61.88,30.141" id="Fill-59" fill="#006095" sketch:type="MSShapeGroup"></path>
            <path d="M59.937,32.729 L60.618,31.963 L60.938,32.146 C60.819,32.28 60.837,32.348 60.948,32.449 L62.147,33.515 C62.265,33.618 62.331,33.624 62.448,33.491 L62.669,33.787 L61.987,34.553 L61.667,34.37 C61.786,34.236 61.772,34.171 61.657,34.067 L60.458,33.001 C60.345,32.901 60.274,32.892 60.157,33.025 L59.937,32.729" id="Fill-60" fill="#006095" sketch:type="MSShapeGroup"></path>
            <path d="M58.233,34.229 C58.653,33.893 59.067,33.783 59.263,33.747 L59.515,34.304 L59.319,34.46 C59.048,34.278 58.731,34.382 58.511,34.561 C58.339,34.697 58.226,34.919 58.372,35.1 C58.497,35.256 58.671,35.231 59.071,35.013 C59.477,34.785 59.97,34.665 60.317,35.099 C60.657,35.523 60.47,36.067 59.987,36.454 C59.618,36.749 59.249,36.879 59.063,36.919 L58.827,36.39 L59.019,36.236 C59.274,36.369 59.546,36.266 59.72,36.126 C59.909,35.973 59.976,35.778 59.862,35.635 C59.751,35.496 59.579,35.531 59.282,35.695 C58.739,35.993 58.28,36.12 57.899,35.644 C57.526,35.178 57.761,34.608 58.233,34.229" id="Fill-61" fill="#006095" sketch:type="MSShapeGroup"></path>
            <path d="M43.458,40.264 L42.092,39.874 L42.119,39.5 L42.295,39.551 C42.476,39.603 42.532,39.564 42.573,39.418 L42.972,38.027 C42.874,38.078 42.71,38.1 42.432,38.053 L42.547,37.65 C42.845,37.661 43.025,37.629 43.332,37.352 L43.89,37.51 L43.284,39.622 C43.243,39.767 43.28,39.833 43.456,39.884 L43.632,39.934 L43.458,40.264" id="Fill-62" fill="#006095" sketch:type="MSShapeGroup"></path>
            <path d="M46.293,38.296 C46.044,38.273 45.871,38.36 45.854,38.533 C45.838,38.71 45.989,38.864 46.227,38.998 C46.478,38.91 46.653,38.787 46.671,38.61 C46.687,38.437 46.528,38.319 46.293,38.296 L46.293,38.296 Z M46.186,39.436 C45.88,39.546 45.655,39.7 45.634,39.926 C45.615,40.125 45.81,40.292 46.103,40.319 C46.386,40.345 46.617,40.224 46.636,40.025 C46.657,39.794 46.461,39.601 46.186,39.436 L46.186,39.436 Z M46.063,40.732 C45.31,40.661 44.859,40.314 44.902,39.857 C44.939,39.462 45.274,39.27 45.64,39.152 C45.343,38.981 45.095,38.77 45.124,38.455 C45.162,38.051 45.631,37.818 46.332,37.884 C47.001,37.947 47.437,38.265 47.399,38.669 C47.369,38.985 47.09,39.146 46.767,39.258 C47.102,39.442 47.396,39.694 47.358,40.088 C47.315,40.545 46.796,40.8 46.063,40.732 L46.063,40.732 Z" id="Fill-63" fill="#006095" sketch:type="MSShapeGroup"></path>
            <path d="M49.526,38.324 C49.198,38.355 49.029,38.59 49.062,38.927 C49.092,39.242 49.28,39.434 49.595,39.404 C49.883,39.376 50.132,39.173 50.097,38.81 C50.074,38.57 49.917,38.286 49.526,38.324 L49.526,38.324 Z M49.519,40.741 C49.336,40.758 48.989,40.729 48.869,40.655 L48.831,40.265 C48.966,40.301 49.159,40.319 49.333,40.302 C49.819,40.255 50.101,40.009 50.161,39.524 C50.072,39.671 49.817,39.812 49.548,39.838 C48.878,39.903 48.458,39.549 48.405,38.99 C48.351,38.418 48.763,37.967 49.485,37.898 C50.323,37.817 50.761,38.321 50.831,39.043 C50.914,39.908 50.537,40.642 49.519,40.741 L49.519,40.741 Z" id="Fill-64" fill="#006095" sketch:type="MSShapeGroup"></path>
            <path d="M53.823,39.875 L52.45,40.239 L52.284,39.905 L52.46,39.858 C52.642,39.81 52.671,39.747 52.632,39.601 L52.263,38.201 C52.204,38.294 52.075,38.398 51.811,38.5 L51.704,38.095 C51.966,37.953 52.106,37.833 52.228,37.437 L52.786,37.289 L53.347,39.413 C53.386,39.558 53.45,39.597 53.628,39.549 L53.804,39.503 L53.823,39.875" id="Fill-65" fill="#006095" sketch:type="MSShapeGroup"></path>
        </g>
    </g>
</svg>