<?xml version="1.0" encoding="UTF-8" standalone="no"?>
<svg width="224px" height="33px" viewBox="0 0 224 33" version="1.1" xmlns="http://www.w3.org/2000/svg" xmlns:xlink="http://www.w3.org/1999/xlink" xmlns:sketch="http://www.bohemiancoding.com/sketch/ns">
    <!-- Generator: Sketch 3.0.2 (7799) - http://www.bohemiancoding.com/sketch -->
    <title>gu</title>
    <description>Created with Sketch.</description>
    <defs>
        <path id="path-1" d="M0.06,-0.345 L223.77,-0.345 L223.77,32 L0.06,32 L0.06,-0.345 Z"></path>
    </defs>
    <g id="Page-1" stroke="none" stroke-width="1" fill="none" fill-rule="evenodd" sketch:type="MSPage">
        <g id="gu" sketch:type="MSLayerGroup" transform="translate(0.000000, 1.000000)">
            <path d="M39.515,16.241 C39.515,13.244 41.541,11.48 44.208,11.48 C45.22,11.48 45.808,11.646 46.329,11.795 L46.78,11.399 L46.984,11.399 L47.081,14.394 L46.793,14.394 C46.109,12.561 45.138,12.041 44.126,12.041 C42.539,12.041 40.994,13.232 40.994,16.104 C40.994,18.348 42.115,20.386 44.44,20.386 C45.11,20.386 45.835,20.195 45.835,19.976 C45.835,19.51 45.85,18.266 45.808,17.212 L45.753,17.158 L44.413,17.088 L44.413,16.624 L48.243,16.624 L48.243,17.088 L47.258,17.158 L47.204,17.212 C47.177,18.087 47.163,19.072 47.177,20.126 C47.013,20.468 45.699,21.001 44.317,21.001 C41.526,21.001 39.515,19.265 39.515,16.241" id="Fill-1" fill="#1A1918" sketch:type="MSShapeGroup"></path>
            <path d="M54.604,9.907 C54.604,9.469 54.878,9.127 55.343,9.127 C55.781,9.127 56.055,9.415 56.055,9.852 C56.055,10.29 55.768,10.631 55.302,10.631 C54.878,10.631 54.604,10.345 54.604,9.907 L54.604,9.907 Z M52.046,9.907 C52.046,9.469 52.32,9.127 52.785,9.127 C53.223,9.127 53.497,9.415 53.497,9.852 C53.497,10.29 53.209,10.631 52.744,10.631 C52.32,10.631 52.046,10.345 52.046,9.907 L52.046,9.907 Z M56.889,16.241 C56.889,13.479 55.809,12.096 54.071,12.096 C52.334,12.096 51.226,13.479 51.226,16.241 C51.226,19.003 52.306,20.386 54.043,20.386 C55.781,20.386 56.889,19.003 56.889,16.241 L56.889,16.241 Z M49.748,16.378 C49.748,13.273 51.65,11.48 54.071,11.48 C56.793,11.48 58.367,13.396 58.367,16.104 C58.367,19.21 56.465,21.001 54.043,21.001 C51.321,21.001 49.748,19.086 49.748,16.378 L49.748,16.378 Z" id="Fill-2" fill="#1A1918" sketch:type="MSShapeGroup"></path>
            <path d="M61.211,20.399 L62.675,20.331 L62.73,20.277 C62.744,19.77 62.771,18.006 62.771,16.159 C62.771,14.312 62.771,12.794 62.73,12.315 L62.689,12.247 L61.061,12.247 C60.774,12.247 60.432,12.739 59.871,14.394 L59.597,14.394 L59.707,11.399 L59.954,11.399 L60.35,11.63 L66.492,11.63 L66.889,11.399 L67.136,11.399 L67.245,14.394 L66.971,14.394 C66.396,12.725 66.068,12.247 65.781,12.247 L64.153,12.247 L64.113,12.315 C64.099,12.643 64.071,14.489 64.071,16.337 C64.071,18.184 64.099,19.784 64.113,20.277 L64.167,20.331 L65.672,20.399 L65.672,20.865 L61.211,20.865 L61.211,20.399" id="Fill-3" fill="#1A1918" sketch:type="MSShapeGroup"></path>
            <path d="M68.887,20.399 L70.227,20.331 L70.282,20.277 C70.296,19.648 70.323,18.006 70.323,16.159 C70.323,14.312 70.296,12.766 70.282,12.219 L70.227,12.165 L68.887,12.096 L68.887,11.63 L74.892,11.63 L75.425,11.399 L75.631,11.399 L75.727,14.394 L75.454,14.394 C74.96,13.013 74.523,12.328 74.29,12.315 L71.705,12.178 L71.663,12.247 C71.65,12.876 71.622,14.326 71.622,15.858 C72.238,15.858 73.579,15.817 73.934,15.79 L73.989,15.735 L74.482,14.777 L74.742,14.777 C74.727,15.16 74.714,15.748 74.714,16.118 C74.714,16.473 74.727,17.239 74.742,17.65 L74.482,17.65 L73.989,16.515 L73.934,16.46 C73.51,16.446 72.293,16.419 71.622,16.419 C71.622,18.156 71.65,19.551 71.663,20.249 L71.705,20.317 L74.496,20.167 C74.727,20.153 75.344,19.592 75.836,17.979 L76.151,17.979 C75.973,20.646 75.931,20.865 75.699,20.865 L68.887,20.865 L68.887,20.399" id="Fill-4" fill="#1A1918" sketch:type="MSShapeGroup"></path>
            <path d="M84.058,18.238 C84.058,16.939 83.168,16.433 81.965,16.433 L80.528,16.433 C80.514,18.17 80.555,19.551 80.569,20.277 L80.637,20.331 C80.896,20.345 81.144,20.345 81.308,20.345 C83.154,20.345 84.058,19.579 84.058,18.238 L84.058,18.238 Z M81.39,15.831 C83.004,15.831 83.414,15.065 83.414,14.011 C83.414,13.286 83.154,12.739 82.594,12.451 C82.238,12.26 81.732,12.151 80.98,12.151 C80.911,12.151 80.761,12.151 80.623,12.165 L80.569,12.232 C80.555,12.944 80.514,14.285 80.528,15.831 L81.39,15.831 L81.39,15.831 Z M77.792,20.399 L79.132,20.331 L79.188,20.277 C79.202,19.797 79.228,18.006 79.228,16.159 C79.228,14.312 79.202,12.821 79.188,12.219 L79.132,12.165 L77.792,12.096 L77.792,11.63 C78.804,11.63 79.967,11.603 80.775,11.603 C81.772,11.603 82.539,11.686 83.154,11.877 C84.235,12.219 84.892,12.917 84.892,13.915 C84.892,15.092 84.112,15.79 83.223,16.008 L83.223,16.036 C84.673,16.104 85.535,16.953 85.535,18.06 C85.535,19.92 83.865,20.893 81.212,20.893 C80.323,20.893 78.887,20.865 77.792,20.865 L77.792,20.399 L77.792,20.399 Z" id="Fill-5" fill="#1A1918" sketch:type="MSShapeGroup"></path>
            <path d="M94.591,16.241 C94.591,13.479 93.511,12.096 91.772,12.096 C90.035,12.096 88.927,13.479 88.927,16.241 C88.927,19.003 90.008,20.386 91.746,20.386 C93.482,20.386 94.591,19.003 94.591,16.241 L94.591,16.241 Z M87.45,16.378 C87.45,13.273 89.352,11.48 91.772,11.48 C94.496,11.48 96.068,13.396 96.068,16.104 C96.068,19.21 94.167,21.001 91.746,21.001 C89.023,21.001 87.45,19.086 87.45,16.378 L87.45,16.378 Z" id="Fill-6" fill="#1A1918" sketch:type="MSShapeGroup"></path>
            <path d="M103.306,14.011 C103.306,13.259 102.977,12.698 102.361,12.411 C102.019,12.247 101.595,12.151 100.733,12.151 L100.282,12.151 L100.24,12.191 C100.228,12.779 100.213,14.572 100.199,16.173 C102.581,16.104 103.306,15.338 103.306,14.011 L103.306,14.011 Z M97.437,20.399 L98.804,20.331 L98.859,20.277 C98.873,19.879 98.9,18.006 98.9,16.159 C98.9,14.312 98.873,12.835 98.859,12.219 L98.804,12.165 L97.437,12.096 L97.437,11.63 C98.668,11.63 99.98,11.603 100.678,11.603 C101.759,11.603 102.389,11.672 102.895,11.822 C104.208,12.219 104.782,13.067 104.782,13.998 C104.782,15.352 103.866,15.995 102.745,16.351 L102.745,16.378 C103.1,16.789 103.716,17.91 104.509,19.306 C104.852,19.907 105.18,20.358 105.631,20.386 L105.932,20.399 L105.932,20.865 L103.88,20.865 L103.825,20.81 C103.318,19.784 102.963,18.95 102.101,17.418 C101.923,17.103 101.759,16.843 101.554,16.61 C101.061,16.679 100.597,16.707 100.199,16.707 C100.186,18.334 100.228,19.866 100.24,20.277 L100.296,20.331 L101.554,20.399 L101.554,20.865 L97.437,20.865 L97.437,20.399 L97.437,20.399 Z" id="Fill-7" fill="#1A1918" sketch:type="MSShapeGroup"></path>
            <path d="M106.958,16.241 C106.958,13.244 108.983,11.48 111.65,11.48 C112.662,11.48 113.25,11.646 113.77,11.795 L114.22,11.399 L114.427,11.399 L114.523,14.394 L114.235,14.394 C113.551,12.561 112.58,12.041 111.568,12.041 C109.981,12.041 108.435,13.232 108.435,16.104 C108.435,18.348 109.557,20.386 111.882,20.386 C112.552,20.386 113.278,20.195 113.278,19.976 C113.278,19.51 113.292,18.266 113.25,17.212 L113.195,17.158 L111.855,17.088 L111.855,16.624 L115.685,16.624 L115.685,17.088 L114.7,17.158 L114.646,17.212 C114.619,18.087 114.604,19.072 114.619,20.126 C114.454,20.468 113.141,21.001 111.759,21.001 C108.968,21.001 106.958,19.265 106.958,16.241" id="Fill-8" fill="#1A1918" sketch:type="MSShapeGroup"></path>
            <path d="M117.122,17.979 L117.436,17.979 C117.916,19.716 118.695,20.441 119.652,20.441 C120.774,20.441 121.485,19.689 121.485,18.704 C121.485,16.323 117.286,16.924 117.286,13.915 C117.286,12.643 118.285,11.48 120.022,11.48 C120.911,11.48 121.623,11.754 121.773,11.795 L122.183,11.399 L122.443,11.399 L122.525,14.394 L122.238,14.394 C121.664,12.725 120.911,12.041 119.98,12.041 C119.173,12.041 118.476,12.575 118.476,13.479 C118.476,15.762 122.744,15.406 122.744,18.293 C122.744,19.674 121.705,21.001 119.571,21.001 C118.983,21.001 118.285,20.865 117.682,20.468 L117.409,21.001 L117.122,21.001 L117.122,17.979" id="Fill-9" fill="#1A1918" sketch:type="MSShapeGroup"></path>
            <path d="M129.255,17.582 C129.255,17.062 129.269,16.747 129.269,15.394 C129.269,14.312 129.255,13.45 129.241,12.219 L129.188,12.165 L127.874,12.096 L127.874,11.63 L131.786,11.63 L131.786,12.096 L130.678,12.165 L130.623,12.219 C130.61,13.244 130.595,15.461 130.595,17.526 C130.595,19.251 130.993,20.414 132.812,20.414 C134.714,20.414 135.261,19.306 135.261,17.267 C135.261,15.488 135.234,13.56 135.207,12.219 L135.152,12.165 L133.893,12.096 L133.893,11.63 L137.518,11.63 L137.518,12.096 L136.177,12.165 L136.123,12.219 C136.081,13.682 136.081,15.693 136.095,17.39 C136.109,19.743 135,21.001 132.703,21.001 C130.445,21.001 129.255,19.839 129.255,17.582" id="Fill-10" fill="#1A1918" sketch:type="MSShapeGroup"></path>
            <path d="M138.75,20.399 L140.09,20.331 L140.145,20.277 C140.185,18.813 140.185,17.732 140.185,16.364 C140.185,14.996 140.185,14.244 140.145,12.219 L140.09,12.165 L138.75,12.096 L138.75,11.63 L141.362,11.63 C143.031,13.97 144.932,16.707 146.3,18.662 L146.328,18.662 C146.3,16.036 146.274,13.56 146.246,12.219 L146.191,12.165 L144.932,12.096 L144.932,11.63 L148.559,11.63 L148.559,12.096 L147.217,12.165 L147.162,12.219 C147.122,13.682 147.122,14.763 147.122,18.197 L147.122,20.933 L146.451,20.933 C144.754,18.525 142.73,15.693 141.006,13.232 L140.979,13.232 C140.993,16.433 141.034,18.908 141.061,20.277 L141.116,20.331 L142.375,20.399 L142.375,20.865 L138.75,20.865 L138.75,20.399" id="Fill-11" fill="#1A1918" sketch:type="MSShapeGroup"></path>
            <path d="M150.2,20.399 L151.541,20.331 L151.595,20.277 C151.622,19.852 151.636,18.006 151.636,16.159 C151.636,14.312 151.622,12.685 151.595,12.219 L151.541,12.165 L150.2,12.096 L150.2,11.63 L154.358,11.63 L154.358,12.096 L153.031,12.165 L152.976,12.219 C152.95,12.589 152.935,14.489 152.935,16.337 C152.935,18.184 152.962,19.812 152.976,20.277 L153.031,20.331 L154.358,20.399 L154.358,20.865 L150.2,20.865 L150.2,20.399" id="Fill-12" fill="#1A1918" sketch:type="MSShapeGroup"></path>
            <path d="M156.342,12.137 L155.521,12.096 L155.521,11.63 L159.105,11.63 L159.105,12.096 L157.888,12.151 L157.833,12.205 C158.598,14.189 159.501,16.583 160.405,18.895 L160.431,18.895 C161.102,17.034 162.265,13.724 162.716,12.191 L162.676,12.151 L161.567,12.096 L161.567,11.63 L164.59,11.63 L164.59,12.096 L163.797,12.137 C163.085,13.942 161.445,18.197 160.364,21.001 L159.995,21.001 C158.585,17.582 157.369,14.599 156.342,12.137" id="Fill-13" fill="#1A1918" sketch:type="MSShapeGroup"></path>
            <path d="M165.617,20.399 L166.958,20.331 L167.012,20.277 C167.026,19.648 167.054,18.006 167.054,16.159 C167.054,14.312 167.026,12.766 167.012,12.219 L166.958,12.165 L165.617,12.096 L165.617,11.63 L171.622,11.63 L172.156,11.399 L172.362,11.399 L172.458,14.394 L172.183,14.394 C171.691,13.013 171.252,12.328 171.02,12.315 L168.435,12.178 L168.393,12.247 C168.38,12.876 168.353,14.326 168.353,15.858 C168.969,15.858 170.309,15.817 170.664,15.79 L170.719,15.735 L171.211,14.777 L171.471,14.777 C171.458,15.16 171.445,15.748 171.445,16.118 C171.445,16.473 171.458,17.239 171.471,17.65 L171.211,17.65 L170.719,16.515 L170.664,16.46 C170.241,16.446 169.023,16.419 168.353,16.419 C168.353,18.156 168.38,19.551 168.393,20.249 L168.435,20.317 L171.226,20.167 C171.458,20.153 172.074,19.592 172.566,17.979 L172.881,17.979 C172.704,20.646 172.662,20.865 172.429,20.865 L165.617,20.865 L165.617,20.399" id="Fill-14" fill="#1A1918" sketch:type="MSShapeGroup"></path>
            <path d="M180.391,14.011 C180.391,13.259 180.062,12.698 179.447,12.411 C179.105,12.247 178.681,12.151 177.819,12.151 L177.368,12.151 L177.327,12.191 C177.313,12.779 177.298,14.572 177.285,16.173 C179.666,16.104 180.391,15.338 180.391,14.011 L180.391,14.011 Z M174.522,20.399 L175.889,20.331 L175.946,20.277 C175.958,19.879 175.986,18.006 175.986,16.159 C175.986,14.312 175.958,12.835 175.946,12.219 L175.889,12.165 L174.522,12.096 L174.522,11.63 C175.753,11.63 177.067,11.603 177.764,11.603 C178.845,11.603 179.474,11.672 179.981,11.822 C181.293,12.219 181.868,13.067 181.868,13.998 C181.868,15.352 180.951,15.995 179.83,16.351 L179.83,16.378 C180.186,16.789 180.801,17.91 181.595,19.306 C181.936,19.907 182.264,20.358 182.716,20.386 L183.017,20.399 L183.017,20.865 L180.965,20.865 L180.911,20.81 C180.405,19.784 180.048,18.95 179.187,17.418 C179.008,17.103 178.845,16.843 178.639,16.61 C178.148,16.679 177.682,16.707 177.285,16.707 C177.272,18.334 177.313,19.866 177.327,20.277 L177.38,20.331 L178.639,20.399 L178.639,20.865 L174.522,20.865 L174.522,20.399 L174.522,20.399 Z" id="Fill-15" fill="#1A1918" sketch:type="MSShapeGroup"></path>
            <path d="M184.522,17.979 L184.836,17.979 C185.315,19.716 186.095,20.441 187.053,20.441 C188.174,20.441 188.886,19.689 188.886,18.704 C188.886,16.323 184.686,16.924 184.686,13.915 C184.686,12.643 185.684,11.48 187.422,11.48 C188.312,11.48 189.023,11.754 189.172,11.795 L189.583,11.399 L189.843,11.399 L189.926,14.394 L189.639,14.394 C189.063,12.725 188.312,12.041 187.381,12.041 C186.575,12.041 185.876,12.575 185.876,13.479 C185.876,15.762 190.145,15.406 190.145,18.293 C190.145,19.674 189.105,21.001 186.97,21.001 C186.382,21.001 185.684,20.865 185.083,20.468 L184.809,21.001 L184.522,21.001 L184.522,17.979" id="Fill-16" fill="#1A1918" sketch:type="MSShapeGroup"></path>
            <path d="M192.128,20.399 L193.469,20.331 L193.523,20.277 C193.551,19.852 193.565,18.006 193.565,16.159 C193.565,14.312 193.551,12.685 193.523,12.219 L193.469,12.165 L192.128,12.096 L192.128,11.63 L196.287,11.63 L196.287,12.096 L194.96,12.165 L194.906,12.219 C194.878,12.589 194.865,14.489 194.865,16.337 C194.865,18.184 194.891,19.812 194.906,20.277 L194.96,20.331 L196.287,20.399 L196.287,20.865 L192.128,20.865 L192.128,20.399" id="Fill-17" fill="#1A1918" sketch:type="MSShapeGroup"></path>
            <path d="M199.542,20.399 L201.007,20.331 L201.061,20.277 C201.075,19.77 201.103,18.006 201.103,16.159 C201.103,14.312 201.103,12.794 201.061,12.315 L201.019,12.247 L199.393,12.247 C199.105,12.247 198.762,12.739 198.202,14.394 L197.929,14.394 L198.039,11.399 L198.284,11.399 L198.681,11.63 L204.824,11.63 L205.219,11.399 L205.465,11.399 L205.575,14.394 L205.302,14.394 C204.727,12.725 204.399,12.247 204.112,12.247 L202.484,12.247 L202.443,12.315 C202.429,12.643 202.402,14.489 202.402,16.337 C202.402,18.184 202.429,19.784 202.443,20.277 L202.498,20.331 L204.002,20.399 L204.002,20.865 L199.542,20.865 L199.542,20.399" id="Fill-18" fill="#1A1918" sketch:type="MSShapeGroup"></path>
            <path d="M207.216,20.399 L208.558,20.331 L208.612,20.277 C208.626,19.648 208.654,18.006 208.654,16.159 C208.654,14.312 208.626,12.766 208.612,12.219 L208.558,12.165 L207.216,12.096 L207.216,11.63 L213.222,11.63 L213.755,11.399 L213.961,11.399 L214.057,14.394 L213.784,14.394 C213.291,13.013 212.853,12.328 212.62,12.315 L210.036,12.178 L209.994,12.247 C209.981,12.876 209.954,14.326 209.954,15.858 C210.569,15.858 211.91,15.817 212.265,15.79 L212.32,15.735 L212.812,14.777 L213.072,14.777 C213.058,15.16 213.045,15.748 213.045,16.118 C213.045,16.473 213.058,17.239 213.072,17.65 L212.812,17.65 L212.32,16.515 L212.265,16.46 C211.84,16.446 210.624,16.419 209.954,16.419 C209.954,18.156 209.981,19.551 209.994,20.249 L210.036,20.317 L212.827,20.167 C213.058,20.153 213.673,19.592 214.167,17.979 L214.481,17.979 C214.303,20.646 214.262,20.865 214.03,20.865 L207.216,20.865 L207.216,20.399" id="Fill-19" fill="#1A1918" sketch:type="MSShapeGroup"></path>
            <path d="M217.737,20.399 L219.201,20.331 L219.255,20.277 C219.268,19.77 219.296,18.006 219.296,16.159 C219.296,14.312 219.296,12.794 219.255,12.315 L219.215,12.247 L217.586,12.247 C217.298,12.247 216.957,12.739 216.396,14.394 L216.123,14.394 L216.232,11.399 L216.478,11.399 L216.875,11.63 L223.017,11.63 L223.414,11.399 L223.661,11.399 L223.77,14.394 L223.496,14.394 C222.921,12.725 222.593,12.247 222.305,12.247 L220.678,12.247 L220.637,12.315 C220.623,12.643 220.596,14.489 220.596,16.337 C220.596,18.184 220.623,19.784 220.637,20.277 L220.692,20.331 L222.197,20.399 L222.197,20.865 L217.737,20.865 L217.737,20.399" id="Fill-20" fill="#1A1918" sketch:type="MSShapeGroup"></path>
            <g id="Group-24">
                <mask id="mask-2" sketch:name="Clip 22" fill="white">
                    <use xlink:href="#path-1"></use>
                </mask>
                <g id="Clip-22"></g>
                <path d="M15.932,26.886 C9.835,26.754 4.982,21.685 5.114,15.588 C5.178,12.634 6.388,9.882 8.522,7.838 C10.657,5.795 13.459,4.705 16.411,4.769 C22.509,4.901 27.361,9.97 27.229,16.067 C27.165,19.021 25.955,21.773 23.821,23.816 C21.687,25.859 18.886,26.95 15.932,26.886 L15.932,26.886 Z M7.893,7.181 C5.584,9.393 4.273,12.371 4.205,15.568 C4.062,22.167 9.314,27.652 15.913,27.796 C19.109,27.865 22.141,26.686 24.451,24.474 C26.76,22.262 28.07,19.283 28.14,16.086 C28.282,9.487 23.03,4.002 16.431,3.859 C13.235,3.79 10.203,4.97 7.893,7.181 L7.893,7.181 Z" id="Fill-21" fill="#006095" sketch:type="MSShapeGroup" mask="url(#mask-2)"></path>
                <path d="M15.837,31.264 C7.326,31.08 0.551,24.005 0.736,15.492 C0.825,11.37 2.514,7.528 5.493,4.676 C8.472,1.823 12.384,0.301 16.506,0.391 C20.629,0.48 24.471,2.169 27.324,5.148 C30.176,8.127 31.697,12.038 31.608,16.161 C31.424,24.673 24.349,31.448 15.837,31.264 L15.837,31.264 Z M4.987,4.147 C1.867,7.135 0.098,11.158 0.004,15.477 C-0.189,24.393 6.906,31.803 15.821,31.996 C24.736,32.189 32.147,25.092 32.339,16.177 C32.434,11.859 30.839,7.762 27.853,4.642 C24.864,1.522 20.84,-0.248 16.522,-0.341 C12.204,-0.435 8.107,1.158 4.987,4.147 L4.987,4.147 Z" id="Fill-23" fill="#006095" sketch:type="MSShapeGroup" mask="url(#mask-2)"></path>
            </g>
            <path d="M19.39,25.443 C13.386,26.521 8.575,24.185 7.694,21.303 C7.125,19.438 7.952,19.033 8.084,17.687 C7.045,18.241 6.853,16.799 7.771,16.675 C8.742,16.544 9.177,17.565 8.704,18.923 C8.025,20.873 9.218,21.779 9.554,21.678 C9.568,21.576 9.69,21.327 9.749,21.217 C8.932,20.173 9.273,18.65 10.667,18.526 C11.235,18.475 11.179,18.889 10.784,18.946 C9.715,19.101 9.766,20.294 10.21,20.446 C10.289,20.446 10.38,20.425 10.459,20.347 C10.44,20.103 10.608,19.757 10.886,19.826 C11.502,19.981 11.267,20.766 10.844,20.829 C10.685,21.312 10.381,21.986 10.447,22.336 C10.511,22.684 10.756,22.753 10.957,22.552 C11.106,22.403 11.178,22.043 11.273,21.653 C11.171,21.212 11.387,20.878 11.76,21.036 C12.019,21.147 12.048,21.544 11.794,21.852 C11.76,22.231 11.594,22.66 11.63,22.95 C11.667,23.241 12.064,23.222 12.207,23.064 C12.35,22.906 12.498,21.88 12.555,21.655 C12.333,21.458 12.421,20.853 12.878,20.816 C13.416,20.774 13.291,21.504 13.139,21.689 C13.29,22.26 13.045,22.904 13.154,23.159 C13.263,23.415 13.682,23.475 13.872,23.266 C14.061,23.057 13.822,22.617 13.928,22.102 C13.747,21.658 13.957,21.303 14.222,21.281 C14.821,21.233 14.651,21.774 14.541,22.153 C14.571,22.542 14.637,23.005 14.772,23.364 C14.859,23.596 15.244,23.649 15.372,23.35 C15.451,23.164 15.269,22.634 15.226,22.26 C14.966,21.655 15.186,21.491 15.418,21.471 C15.639,21.454 15.939,21.578 15.899,22.174 C16.021,22.577 16.125,23.064 16.274,23.38 C16.341,23.633 16.651,23.659 16.749,23.396 C16.844,23.134 16.664,22.826 16.47,22.404 C16.04,21.986 16.431,21.664 16.676,21.644 C16.921,21.624 17.304,21.69 17.224,22.342 C17.356,22.737 17.443,23.098 17.531,23.307 C17.633,23.548 17.97,23.577 18.113,23.419 C18.257,23.26 17.981,22.982 17.91,22.639 C17.585,22.323 17.644,21.893 18.014,21.863 C18.203,21.848 18.574,21.868 18.539,22.422 C18.647,22.662 18.649,22.967 18.809,23.226 C19.002,23.544 19.302,23.424 19.422,23.139 C19.54,22.852 18.796,22.021 19.377,21.974 C19.958,21.929 20.061,22.69 20.249,22.874 C20.437,23.055 20.581,22.934 20.671,22.836 C20.824,22.667 20.418,22.21 20.701,22.081 C21.271,21.819 21.261,22.47 21.666,22.478 C23.434,22.505 24.825,19.603 24.619,18.784 C24.027,18.433 24.235,17.557 24.73,17.547 C25.949,17.526 25.777,19.247 24.853,21.246 C23.641,23.866 20.661,25.215 19.39,25.443" id="Fill-25" fill="#006095" sketch:type="MSShapeGroup"></path>
            <path d="M20.964,11.169 C20.768,11.358 20.147,11.399 19.83,11.213 C19.566,11.059 19.506,9.905 19.639,9.593 C19.771,9.281 21.127,9.269 21.234,9.483 C21.343,9.697 21.16,10.981 20.964,11.169 L20.964,11.169 Z M18.535,9.743 C18.578,9.907 18.74,10.635 18.777,11.073 C18.798,11.236 18.74,11.434 18.642,11.472 C18.398,11.565 17.994,11.542 17.773,11.458 C17.531,11.365 17.694,10.401 16.807,10.23 C16.929,10.144 16.994,10.054 17.018,9.842 C17.034,9.704 17.205,9.554 17.414,9.529 C17.82,9.483 18.073,9.472 18.21,9.476 C18.345,9.481 18.491,9.575 18.535,9.743 L18.535,9.743 Z M16.818,14.524 C16.299,14.513 16.106,11.279 16.642,11.29 C17.122,11.3 17.175,14.531 16.818,14.524 L16.818,14.524 Z M21.964,11.652 C21.944,11.645 21.94,11.61 21.944,11.596 C22.217,10.547 22.416,10.086 22.515,9.041 C22.539,8.791 22.36,8.589 22.195,8.547 C21.548,8.386 21.251,8.392 21,8.373 C20.974,8.371 20.914,8.359 20.896,8.323 C20.822,8.171 20.711,7.715 20.71,7.483 C21.087,6.683 20.414,6.407 19.779,6.417 C19.362,6.397 18.937,6.589 18.887,6.902 C18.83,7.507 19.499,7.728 19.738,7.75 C19.779,7.836 19.876,8.258 19.893,8.426 C19.895,8.448 19.874,8.472 19.845,8.472 C18.772,8.492 17.382,8.68 16.677,8.734 C16.576,8.75 16.528,8.691 16.506,8.633 C16.376,8.271 15.816,6.564 16.865,6.598 C17.488,6.617 18.008,6.108 17.417,5.721 C17.266,5.621 16.471,5.523 16.041,5.598 C15.684,5.659 15.511,6.062 15.556,6.414 C15.627,6.965 14.252,7.021 13.846,6.857 C13.557,6.74 13.2,6.395 13.076,6.172 C12.811,5.701 12.354,6.061 12.438,6.313 C13.007,8.029 14.823,7.757 15.298,7.781 C15.321,7.782 15.362,7.813 15.365,7.826 C15.48,8.446 15.85,9.1 15.849,9.341 C15.622,9.592 15.719,10.13 16.038,10.222 C15.648,10.596 15.474,11.902 15.536,12.986 C15.616,14.367 16.173,15.707 17.051,15.562 C18.167,15.379 17.728,12.797 17.998,12.577 C18.134,12.467 18.498,12.498 18.63,12.514 C18.661,12.518 18.676,12.552 18.674,12.568 C18.586,13.582 18.346,15.207 18.287,15.64 C18.226,16.082 18.189,16.311 18.413,16.719 C18.659,17.168 19.107,18.597 18.583,20.109 C18.567,20.169 18.517,20.187 18.501,20.192 C18.027,20.3 17.774,20.448 17.602,20.565 C17.415,20.692 17.215,20.956 17.352,21.116 C17.55,21.296 18.825,21.227 19.217,20.638 C19.227,20.623 19.254,20.567 19.259,20.555 C19.395,20.175 19.565,19.899 19.693,19.655 C20.281,18.533 20.367,17.155 19.561,16.532 C19.335,16.358 19.103,16.191 19.324,15.755 C19.751,14.911 19.795,13.989 19.849,13.21 C19.871,12.896 20.392,12.716 20.589,13.012 C21.077,14.17 20.693,15.167 20.686,15.577 C20.676,15.989 20.831,16.179 20.885,16.426 C21.217,17.934 21.05,19.155 20.749,20.712 C20.747,20.745 20.721,20.768 20.69,20.778 C20.336,20.896 20.119,20.97 19.898,21.125 C19.674,21.282 19.586,21.482 19.684,21.592 C19.98,21.926 21.319,21.564 21.42,21.18 C21.671,20.226 23.476,18.014 22.22,16.602 C21.647,15.957 21.647,16.216 21.642,15.89 C21.638,15.734 22.001,14.878 22.091,14.217 C22.187,13.527 21.736,12.872 21.848,12.491 C21.852,12.48 21.88,12.461 21.893,12.464 C22.079,12.5 22.521,12.618 22.807,12.78 C22.895,12.83 23.048,12.791 23.07,12.449 C23.094,12.078 22.152,11.72 21.964,11.652 L21.964,11.652 Z" id="Fill-26" fill="#006095" sketch:type="MSShapeGroup"></path>
            <path d="M10.631,16.378 C10.449,16.276 10.591,15.909 10.856,15.869 C11.042,15.84 11.671,15.764 11.891,15.859 C12.06,15.933 12.179,16.288 12.083,16.393 C11.903,16.592 10.893,16.523 10.631,16.378 L10.631,16.378 Z M8.525,15.211 C8.508,14.993 8.803,14.747 9.029,14.794 C9.21,14.833 9.771,15.424 9.797,15.563 C9.844,15.817 9.641,16.019 9.471,16.031 C9.207,16.05 8.546,15.45 8.525,15.211 L8.525,15.211 Z M8.637,14.021 C8.508,14.174 8.219,14.271 8.081,14.16 C7.872,13.992 7.809,13.309 7.944,13.018 C8.035,12.822 8.512,12.714 8.6,12.937 C8.661,13.091 8.732,13.908 8.637,14.021 L8.637,14.021 Z M8.799,12.082 C8.569,12.197 8.354,12.04 8.331,11.755 C8.306,11.471 8.978,10.776 9.219,10.842 C9.338,10.875 9.515,11.1 9.496,11.301 C9.483,11.441 8.934,12.014 8.799,12.082 L8.799,12.082 Z M12.426,14.556 C12.185,14.451 11.562,13.629 11.784,13.407 C11.992,13.198 12.868,12.754 13.009,12.885 C13.553,13.391 12.897,14.761 12.426,14.556 L12.426,14.556 Z M9.875,14.39 C9.875,14.231 10.695,13.674 11.018,13.795 C11.277,13.892 11.685,14.915 11.464,15.018 C10.869,15.299 9.875,14.651 9.875,14.39 L9.875,14.39 Z M10.079,11.893 C10.195,11.868 10.742,12.715 10.642,13.028 C10.557,13.294 9.55,13.668 9.449,13.567 C9.142,13.261 9.411,12.033 10.079,11.893 L10.079,11.893 Z M12.555,12.116 C12.555,12.377 11.643,12.814 11.461,12.707 C11.195,12.55 10.652,11.744 10.765,11.604 C11.158,11.117 12.555,11.706 12.555,12.116 L12.555,12.116 Z M11.772,10.33 C11.829,10.453 11.897,10.617 11.769,10.759 C11.662,10.878 10.695,10.91 10.55,10.9 C10.245,10.88 10.103,10.568 10.204,10.412 C10.387,10.127 11.666,10.102 11.772,10.33 L11.772,10.33 Z M13.898,11.567 C13.867,11.736 13.588,11.801 13.467,11.788 C13.319,11.771 12.688,11.277 12.647,11.104 C12.594,10.878 12.747,10.733 12.892,10.697 C13.284,10.598 13.944,11.324 13.898,11.567 L13.898,11.567 Z M14.439,13.853 C14.296,13.948 14.024,13.965 13.91,13.792 C13.831,13.673 13.806,12.796 13.858,12.666 C13.913,12.531 14.207,12.431 14.374,12.523 C14.565,12.628 14.672,13.697 14.439,13.853 L14.439,13.853 Z M13.502,14.728 C13.651,14.715 13.93,14.749 14.012,14.952 C14.1,15.173 13.488,15.866 13.204,15.947 C13.031,15.997 12.771,15.735 12.819,15.478 C12.85,15.311 13.382,14.739 13.502,14.728 L13.502,14.728 Z M15.132,12.767 C15.031,11.544 13.891,9.928 12.225,9.651 C10.415,9.351 7.603,10.076 7.298,12.734 C6.983,15.485 9.09,17.529 11.619,17.336 C14.362,17.126 15.274,14.498 15.132,12.767 L15.132,12.767 Z" id="Fill-27" fill="#006095" sketch:type="MSShapeGroup"></path>
            <path d="M11.175,2.093 L11.097,2.71 L10.698,3.188 L11.314,3.266 L11.792,3.666 L11.87,3.048 L12.269,2.572 L11.652,2.493 L11.175,2.093" id="Fill-28" fill="#006095" sketch:type="MSShapeGroup"></path>
            <path d="M22.714,28.817 L22.213,28.45 L21.593,28.412 L21.958,27.909 L21.998,27.287 L22.499,27.656 L23.119,27.694 L22.752,28.196 L22.714,28.817" id="Fill-29" fill="#006095" sketch:type="MSShapeGroup"></path>
            <path d="M9.583,28.794 L10.085,28.429 L10.706,28.393 L10.342,27.889 L10.305,27.268 L9.802,27.634 L9.182,27.67 L9.547,28.173 L9.583,28.794" id="Fill-30" fill="#006095" sketch:type="MSShapeGroup"></path>
            <path d="M6.149,26.125 L6.782,25.383 C7.069,25.046 7.529,25.07 7.967,25.443 C8.409,25.82 8.507,26.272 8.22,26.609 L7.587,27.352 C7.509,27.442 7.506,27.493 7.61,27.582 L7.384,27.753 L6.774,27.232 L6.909,26.984 C7.013,27.073 7.062,27.062 7.14,26.971 L7.775,26.227 C7.902,26.078 7.89,25.898 7.692,25.73 C7.49,25.557 7.307,25.571 7.181,25.72 L6.546,26.464 C6.468,26.555 6.465,26.607 6.566,26.692 L6.343,26.865 L5.785,26.389 L5.917,26.14 C6.021,26.228 6.071,26.216 6.149,26.125" id="Fill-31" fill="#006095" sketch:type="MSShapeGroup"></path>
            <path d="M4.117,23.653 L5.455,22.651 L5.706,22.986 L5.287,24.401 C5.258,24.499 5.182,24.653 5.182,24.653 C5.182,24.653 5.303,24.542 5.363,24.497 L5.953,24.055 C6.045,23.985 6.064,23.937 5.982,23.828 L6.238,23.709 L6.641,24.246 L6.457,24.461 C6.375,24.352 6.322,24.354 6.229,24.423 L5.246,25.16 C5.15,25.232 5.136,25.281 5.218,25.39 L4.96,25.507 L4.598,25.023 L4.977,23.737 C5.008,23.637 5.087,23.48 5.087,23.48 C5.087,23.48 4.963,23.594 4.895,23.645 L4.393,24.022 C4.297,24.093 4.283,24.142 4.365,24.252 L4.109,24.371 L3.704,23.83 L3.89,23.618 C3.972,23.727 4.021,23.724 4.117,23.653" id="Fill-32" fill="#006095" sketch:type="MSShapeGroup"></path>
            <path d="M4.631,21.089 L4.979,21.793 L4.757,21.967 C4.697,21.845 4.643,21.837 4.54,21.889 L3.438,22.434 C3.332,22.486 3.309,22.532 3.369,22.654 L3.096,22.725 L2.748,22.022 L2.97,21.847 C3.03,21.97 3.081,21.979 3.188,21.926 L4.288,21.381 C4.392,21.33 4.418,21.282 4.357,21.16 L4.631,21.089" id="Fill-33" fill="#006095" sketch:type="MSShapeGroup"></path>
            <path d="M2.135,18.986 L3.944,19.149 L4.103,19.69 L2.67,20.799 C2.566,20.879 2.554,20.922 2.59,21.043 L2.307,21.063 L2.086,20.313 L2.333,20.176 C2.369,20.283 2.413,20.299 2.503,20.232 L3.196,19.711 C3.311,19.631 3.555,19.517 3.555,19.517 C3.555,19.517 3.286,19.546 3.145,19.538 L2.273,19.454 C2.157,19.446 2.133,19.496 2.166,19.607 L1.884,19.629 L1.687,18.962 L1.936,18.828 C1.972,18.953 2.004,18.976 2.135,18.986" id="Fill-34" fill="#006095" sketch:type="MSShapeGroup"></path>
            <path d="M3.473,16.153 L3.621,17.774 L3.351,17.86 C3.339,17.724 3.292,17.697 3.176,17.709 L1.954,17.82 C1.834,17.831 1.796,17.865 1.809,18.001 L1.528,17.965 L1.387,16.416 L1.887,16.37 L1.95,16.584 C1.79,16.622 1.756,16.669 1.777,16.904 L1.81,17.264 L2.316,17.218 L2.287,16.892 C2.274,16.753 2.246,16.704 2.137,16.713 L2.17,16.484 L2.67,16.439 L2.749,16.658 C2.636,16.668 2.617,16.721 2.63,16.86 L2.66,17.187 L3.21,17.136 L3.165,16.637 C3.145,16.42 3.08,16.385 2.928,16.371 L2.951,16.139 L3.473,16.153" id="Fill-35" fill="#006095" sketch:type="MSShapeGroup"></path>
            <path d="M1.809,14.181 L1.774,14.493 L2.375,14.56 L2.409,14.259 C2.434,14.031 2.332,13.9 2.149,13.879 C1.965,13.859 1.834,13.958 1.809,14.181 L1.809,14.181 Z M3.699,13.312 L3.629,13.932 C3.3,14.204 2.786,13.923 2.738,14.347 L2.71,14.598 L3.11,14.643 C3.226,14.655 3.273,14.633 3.288,14.498 L3.556,14.586 L3.47,15.359 L3.188,15.389 C3.204,15.25 3.163,15.218 3.047,15.205 L1.827,15.069 C1.712,15.056 1.664,15.082 1.649,15.217 L1.381,15.125 L1.5,14.068 C1.557,13.556 1.801,13.277 2.19,13.321 C2.445,13.35 2.606,13.505 2.675,13.777 C2.775,13.524 3.023,13.486 3.172,13.472 C3.346,13.457 3.407,13.43 3.425,13.271 L3.431,13.223 L3.699,13.312 L3.699,13.312 Z" id="Fill-36" fill="#006095" sketch:type="MSShapeGroup"></path>
            <path d="M4.133,11.961 C4.007,12.354 3.789,12.599 3.68,12.704 L3.283,12.455 L3.341,12.273 C3.592,12.274 3.75,12.074 3.816,11.867 C3.868,11.708 3.846,11.518 3.677,11.463 C3.531,11.416 3.431,11.506 3.267,11.815 C3.104,12.132 2.84,12.416 2.435,12.285 C2.039,12.158 1.928,11.732 2.074,11.28 C2.184,10.936 2.365,10.697 2.466,10.593 L2.841,10.832 L2.784,11.011 C2.565,11.034 2.435,11.214 2.383,11.376 C2.326,11.555 2.366,11.708 2.499,11.751 C2.629,11.793 2.724,11.697 2.845,11.468 C3.065,11.048 3.304,10.774 3.75,10.917 C4.185,11.057 4.275,11.52 4.133,11.961" id="Fill-37" fill="#006095" sketch:type="MSShapeGroup"></path>
            <path d="M5.065,9.703 L4.708,10.401 L4.435,10.327 C4.498,10.205 4.472,10.157 4.369,10.104 L3.276,9.544 C3.169,9.49 3.119,9.498 3.057,9.62 L2.837,9.442 L3.195,8.744 L3.468,8.818 C3.406,8.94 3.428,8.986 3.534,9.04 L4.627,9.601 C4.73,9.653 4.784,9.647 4.846,9.525 L5.065,9.703" id="Fill-38" fill="#006095" sketch:type="MSShapeGroup"></path>
            <path d="M5.162,6.811 C5.032,6.745 4.953,6.738 4.822,6.917 L4.701,7.082 L5.757,7.856 C5.851,7.925 5.903,7.929 5.984,7.819 L6.172,8.029 L5.712,8.656 L5.453,8.543 C5.536,8.43 5.516,8.381 5.423,8.313 L4.367,7.538 L4.246,7.703 C4.114,7.882 4.145,7.956 4.246,8.06 L4.078,8.215 L3.691,7.859 L4.802,6.344 L5.26,6.603 L5.162,6.811" id="Fill-39" fill="#006095" sketch:type="MSShapeGroup"></path>
            <path d="M6.539,5.465 C6.435,5.403 6.222,5.225 6.222,5.225 C6.222,5.225 6.375,5.464 6.427,5.57 L6.653,6.102 L7.046,5.733 L6.539,5.465 L6.539,5.465 Z M8.333,5.807 L7.769,6.333 L7.538,6.17 C7.613,6.101 7.62,6.053 7.511,5.996 L7.359,5.918 L6.81,6.43 L6.875,6.589 C6.923,6.707 6.98,6.692 7.06,6.617 L7.206,6.859 L6.719,7.313 L6.488,7.15 C6.578,7.066 6.592,7.021 6.541,6.901 L6.012,5.655 C5.978,5.579 5.928,5.555 5.831,5.646 L5.687,5.402 L6.498,4.646 L6.731,4.806 C6.631,4.898 6.645,4.943 6.723,4.981 L7.937,5.598 C8.048,5.657 8.094,5.651 8.187,5.565 L8.333,5.807 L8.333,5.807 Z" id="Fill-40" fill="#006095" sketch:type="MSShapeGroup"></path>
            <path d="M9.509,5.084 C9.159,5.301 8.833,5.347 8.683,5.356 L8.542,4.909 L8.705,4.809 C8.894,4.972 9.144,4.921 9.33,4.807 C9.472,4.718 9.578,4.56 9.484,4.409 C9.404,4.279 9.269,4.282 8.944,4.411 C8.615,4.547 8.229,4.593 8.005,4.23 C7.786,3.877 7.978,3.481 8.381,3.231 C8.688,3.041 8.981,2.976 9.125,2.962 L9.256,3.387 L9.097,3.486 C8.915,3.362 8.699,3.415 8.555,3.505 C8.395,3.604 8.327,3.747 8.401,3.865 C8.473,3.981 8.606,3.97 8.847,3.874 C9.288,3.696 9.647,3.643 9.893,4.04 C10.134,4.428 9.904,4.839 9.509,5.084" id="Fill-41" fill="#006095" sketch:type="MSShapeGroup"></path>
            <path d="M15.415,2.303 C15.272,2.322 15.248,2.37 15.263,2.482 L15.285,2.644 C15.299,2.752 15.327,2.776 15.397,2.767 L15.379,3.034 C15.081,3.095 15.029,3.226 14.573,3.288 C13.961,3.37 13.404,3.142 13.299,2.364 C13.203,1.651 13.617,1.227 14.283,1.137 C14.682,1.084 14.99,1.2 15.122,1.255 L15.066,1.737 L14.883,1.762 C14.794,1.55 14.599,1.487 14.382,1.516 C14.001,1.568 13.827,1.812 13.891,2.288 C13.956,2.768 14.16,2.954 14.535,2.903 C14.627,2.891 14.737,2.849 14.797,2.806 L14.763,2.549 C14.748,2.438 14.715,2.397 14.569,2.417 L14.532,2.422 L14.552,2.14 L15.357,2.032 L15.452,2.298 L15.415,2.303" id="Fill-42" fill="#006095" sketch:type="MSShapeGroup"></path>
            <path d="M17.341,1.447 C17.014,1.421 16.843,1.589 16.801,2.109 C16.759,2.629 16.901,2.822 17.228,2.849 C17.561,2.875 17.725,2.707 17.767,2.187 C17.809,1.667 17.674,1.475 17.341,1.447 L17.341,1.447 Z M17.197,3.229 C16.564,3.178 16.142,2.85 16.206,2.061 C16.27,1.272 16.739,1.016 17.371,1.066 C18.014,1.118 18.429,1.446 18.365,2.235 C18.302,3.024 17.839,3.281 17.197,3.229 L17.197,3.229 Z" id="Fill-43" fill="#006095" sketch:type="MSShapeGroup"></path>
            <path d="M20.671,2.324 C20.686,2.18 20.664,2.103 20.45,2.045 L20.252,1.991 L19.907,3.254 C19.877,3.366 19.892,3.416 20.023,3.452 L19.894,3.703 L19.144,3.499 L19.158,3.216 C19.292,3.252 19.33,3.217 19.361,3.105 L19.706,1.841 L19.509,1.788 C19.294,1.729 19.238,1.784 19.177,1.916 L18.971,1.814 L19.165,1.326 L20.978,1.821 L20.899,2.341 L20.671,2.324" id="Fill-44" fill="#006095" sketch:type="MSShapeGroup"></path>
            <path d="M22.868,5.012 L22.175,4.66 L22.246,4.385 C22.371,4.449 22.415,4.422 22.467,4.318 L22.681,3.899 L21.973,3.539 L21.759,3.958 C21.706,4.061 21.711,4.113 21.833,4.175 L21.655,4.395 L20.962,4.042 L21.033,3.768 C21.157,3.832 21.202,3.805 21.254,3.701 L21.812,2.606 C21.866,2.5 21.86,2.451 21.735,2.388 L21.915,2.169 L22.608,2.522 L22.535,2.795 C22.414,2.733 22.371,2.757 22.316,2.863 L22.145,3.201 L22.853,3.562 L23.024,3.224 C23.079,3.118 23.073,3.069 22.949,3.005 L23.128,2.787 L23.821,3.14 L23.748,3.413 C23.626,3.351 23.584,3.375 23.529,3.481 L22.972,4.575 C22.919,4.679 22.923,4.73 23.045,4.793 L22.868,5.012" id="Fill-45" fill="#006095" sketch:type="MSShapeGroup"></path>
            <path d="M25.333,4.683 C25.08,4.475 24.844,4.514 24.513,4.917 C24.181,5.32 24.187,5.56 24.44,5.768 C24.698,5.98 24.929,5.936 25.26,5.533 C25.592,5.13 25.591,4.895 25.333,4.683 L25.333,4.683 Z M24.197,6.063 C23.708,5.659 23.549,5.149 24.052,4.538 C24.554,3.927 25.086,3.984 25.576,4.388 C26.074,4.797 26.227,5.304 25.724,5.915 C25.221,6.525 24.695,6.472 24.197,6.063 L24.197,6.063 Z" id="Fill-46" fill="#006095" sketch:type="MSShapeGroup"></path>
            <path d="M26.896,6.92 L27.054,7.117 C27.185,7.279 27.324,7.289 27.444,7.192 C27.561,7.098 27.581,6.972 27.447,6.805 L27.286,6.605 L26.896,6.92 L26.896,6.92 Z M26.633,7.132 L26.16,7.513 L26.348,7.747 C26.492,7.924 26.655,7.937 26.798,7.822 C26.94,7.708 26.958,7.536 26.811,7.352 L26.633,7.132 L26.633,7.132 Z M26.135,7.993 L25.489,7.19 L25.665,6.969 C25.751,7.076 25.805,7.072 25.895,6.999 L26.851,6.229 C26.945,6.154 26.957,6.104 26.872,5.998 L27.125,5.872 L27.729,6.622 C28.054,7.025 28.091,7.372 27.805,7.603 C27.672,7.71 27.456,7.713 27.294,7.632 C27.395,7.893 27.314,8.125 27.133,8.27 C26.828,8.516 26.457,8.394 26.135,7.993 L26.135,7.993 Z" id="Fill-47" fill="#006095" sketch:type="MSShapeGroup"></path>
            <path d="M29.382,10.166 L28.514,10.609 C28.119,10.811 27.703,10.613 27.441,10.1 C27.178,9.583 27.26,9.127 27.654,8.926 L28.523,8.483 C28.63,8.429 28.652,8.382 28.59,8.261 L28.865,8.19 L29.229,8.904 L29.009,9.081 C28.947,8.96 28.897,8.951 28.791,9.005 L27.918,9.45 C27.745,9.539 27.687,9.71 27.805,9.941 C27.926,10.178 28.1,10.234 28.273,10.146 L29.146,9.701 C29.252,9.647 29.274,9.601 29.214,9.482 L29.486,9.408 L29.819,10.062 L29.602,10.242 C29.54,10.121 29.489,10.112 29.382,10.166" id="Fill-48" fill="#006095" sketch:type="MSShapeGroup"></path>
            <path d="M30.153,12.148 L30.073,11.844 L29.489,11.999 L29.566,12.292 C29.625,12.513 29.768,12.599 29.945,12.552 C30.124,12.504 30.21,12.365 30.153,12.148 L30.153,12.148 Z M28.706,13.642 L28.546,13.038 C28.755,12.665 29.336,12.741 29.227,12.329 L29.162,12.085 L28.773,12.187 C28.661,12.217 28.626,12.255 28.66,12.387 L28.378,12.401 L28.179,11.649 L28.431,11.52 C28.466,11.655 28.517,11.67 28.628,11.64 L29.816,11.326 C29.928,11.297 29.963,11.255 29.928,11.124 L30.211,11.112 L30.483,12.142 C30.614,12.64 30.488,12.987 30.108,13.087 C29.861,13.153 29.655,13.066 29.492,12.837 C29.49,13.11 29.272,13.234 29.138,13.301 C28.982,13.378 28.935,13.426 28.976,13.581 L28.988,13.627 L28.706,13.642 L28.706,13.642 Z" id="Fill-49" fill="#006095" sketch:type="MSShapeGroup"></path>
            <path d="M29.71,16.224 C29.703,16.081 29.658,16.052 29.545,16.058 L29.381,16.066 C29.272,16.071 29.246,16.097 29.25,16.168 L28.985,16.127 C28.949,15.824 28.823,15.762 28.801,15.302 C28.77,14.686 29.044,14.149 29.828,14.111 C30.546,14.075 30.935,14.524 30.967,15.195 C30.987,15.597 30.845,15.895 30.779,16.021 L30.303,15.925 L30.294,15.741 C30.513,15.669 30.592,15.481 30.581,15.262 C30.562,14.877 30.334,14.684 29.854,14.707 C29.37,14.731 29.168,14.919 29.186,15.297 C29.191,15.389 29.224,15.503 29.261,15.566 L29.52,15.554 C29.632,15.548 29.675,15.519 29.668,15.372 L29.666,15.335 L29.945,15.379 L29.985,16.19 L29.711,16.261 L29.71,16.224" id="Fill-50" fill="#006095" sketch:type="MSShapeGroup"></path>
            <path d="M28.571,18.592 L28.817,16.984 L29.1,16.965 C29.079,17.1 29.118,17.137 29.233,17.154 L30.447,17.34 C30.565,17.357 30.61,17.334 30.63,17.199 L30.895,17.301 L30.66,18.838 L30.164,18.763 L30.153,18.541 C30.318,18.542 30.362,18.503 30.397,18.271 L30.452,17.913 L29.95,17.836 L29.901,18.161 C29.879,18.298 29.895,18.353 30.003,18.37 L29.915,18.583 L29.419,18.508 L29.396,18.276 C29.507,18.294 29.539,18.247 29.56,18.108 L29.609,17.785 L29.063,17.701 L28.987,18.197 C28.955,18.413 29.009,18.462 29.153,18.512 L29.075,18.732 L28.571,18.592" id="Fill-51" fill="#006095" sketch:type="MSShapeGroup"></path>
            <path d="M29.254,21.782 L27.69,21.191 L27.838,20.799 L29.256,20.393 C29.354,20.365 29.526,20.345 29.526,20.345 C29.526,20.345 29.366,20.304 29.296,20.277 L28.607,20.017 C28.498,19.976 28.447,19.986 28.399,20.113 L28.161,19.962 L28.398,19.333 L28.678,19.373 C28.63,19.501 28.661,19.545 28.769,19.586 L29.918,20.019 C30.03,20.062 30.079,20.047 30.127,19.919 L30.364,20.075 L30.151,20.639 L28.863,21.01 C28.761,21.038 28.587,21.056 28.587,21.056 C28.587,21.056 28.75,21.099 28.829,21.129 L29.417,21.351 C29.528,21.393 29.577,21.378 29.625,21.251 L29.863,21.402 L29.625,22.034 L29.346,21.991 C29.394,21.863 29.366,21.824 29.254,21.782" id="Fill-52" fill="#006095" sketch:type="MSShapeGroup"></path>
            <path d="M26.873,22.558 C27.093,22.209 27.365,22.026 27.497,21.952 L27.819,22.292 L27.716,22.453 C27.475,22.39 27.272,22.544 27.155,22.729 C27.066,22.87 27.04,23.059 27.19,23.153 C27.319,23.236 27.439,23.174 27.675,22.916 C27.912,22.649 28.238,22.44 28.598,22.667 C28.95,22.89 28.95,23.33 28.697,23.731 C28.504,24.036 28.27,24.223 28.146,24.298 L27.842,23.973 L27.942,23.815 C28.16,23.847 28.33,23.705 28.421,23.56 C28.521,23.402 28.521,23.244 28.402,23.169 C28.287,23.096 28.171,23.164 27.997,23.357 C27.678,23.709 27.379,23.915 26.984,23.665 C26.597,23.421 26.624,22.95 26.873,22.558" id="Fill-53" fill="#006095" sketch:type="MSShapeGroup"></path>
            <path d="M25.384,24.54 L25.906,23.953 L26.15,24.094 C26.06,24.195 26.073,24.248 26.159,24.325 L27.077,25.142 C27.166,25.22 27.217,25.225 27.308,25.123 L27.476,25.35 L26.955,25.936 L26.709,25.796 C26.8,25.693 26.79,25.644 26.701,25.564 L25.783,24.748 C25.696,24.671 25.643,24.665 25.552,24.767 L25.384,24.54" id="Fill-54" fill="#006095" sketch:type="MSShapeGroup"></path>
            <path d="M24.079,25.689 C24.401,25.431 24.718,25.347 24.867,25.319 L25.06,25.746 L24.911,25.865 C24.703,25.726 24.461,25.806 24.291,25.942 C24.161,26.047 24.074,26.217 24.185,26.356 C24.281,26.476 24.414,26.456 24.721,26.288 C25.032,26.113 25.409,26.022 25.675,26.355 C25.935,26.68 25.792,27.096 25.422,27.393 C25.14,27.618 24.857,27.718 24.716,27.748 L24.535,27.343 L24.681,27.226 C24.876,27.327 25.084,27.248 25.217,27.142 C25.363,27.024 25.414,26.874 25.326,26.766 C25.241,26.659 25.109,26.686 24.882,26.811 C24.466,27.039 24.116,27.137 23.824,26.772 C23.538,26.415 23.717,25.979 24.079,25.689" id="Fill-55" fill="#006095" sketch:type="MSShapeGroup"></path>
            <path d="M12.764,30.311 L11.717,30.011 L11.739,29.726 L11.873,29.765 C12.011,29.804 12.055,29.774 12.087,29.662 L12.392,28.597 C12.317,28.636 12.191,28.652 11.978,28.616 L12.066,28.308 C12.294,28.316 12.433,28.292 12.668,28.08 L13.094,28.201 L12.631,29.818 C12.6,29.93 12.627,29.981 12.762,30.02 L12.896,30.057 L12.764,30.311" id="Fill-56" fill="#006095" sketch:type="MSShapeGroup"></path>
            <path d="M14.935,28.804 C14.745,28.785 14.612,28.852 14.599,28.984 C14.586,29.12 14.702,29.237 14.884,29.34 C15.076,29.273 15.211,29.179 15.224,29.043 C15.237,28.911 15.115,28.82 14.935,28.804 L14.935,28.804 Z M14.853,29.676 C14.619,29.761 14.447,29.878 14.43,30.051 C14.416,30.204 14.565,30.331 14.789,30.352 C15.006,30.372 15.183,30.279 15.197,30.127 C15.214,29.95 15.063,29.803 14.853,29.676 L14.853,29.676 Z M14.759,30.668 C14.182,30.613 13.837,30.349 13.87,29.998 C13.898,29.696 14.155,29.549 14.435,29.458 C14.207,29.327 14.017,29.166 14.04,28.925 C14.069,28.615 14.428,28.437 14.965,28.487 C15.477,28.536 15.811,28.779 15.782,29.089 C15.759,29.33 15.545,29.453 15.297,29.54 C15.555,29.681 15.78,29.873 15.752,30.176 C15.718,30.525 15.32,30.721 14.759,30.668 L14.759,30.668 Z" id="Fill-57" fill="#006095" sketch:type="MSShapeGroup"></path>
            <path d="M17.412,28.824 C17.16,28.848 17.03,29.028 17.055,29.286 C17.079,29.527 17.223,29.675 17.464,29.651 C17.684,29.63 17.876,29.475 17.848,29.196 C17.831,29.013 17.71,28.795 17.412,28.824 L17.412,28.824 Z M17.405,30.675 C17.265,30.689 16.999,30.666 16.908,30.609 L16.879,30.311 C16.981,30.339 17.13,30.352 17.263,30.339 C17.636,30.303 17.851,30.115 17.897,29.743 C17.829,29.857 17.634,29.964 17.427,29.983 C16.915,30.033 16.594,29.763 16.553,29.334 C16.511,28.897 16.827,28.551 17.38,28.498 C18.022,28.436 18.357,28.821 18.41,29.376 C18.474,30.037 18.185,30.6 17.405,30.675 L17.405,30.675 Z" id="Fill-58" fill="#006095" sketch:type="MSShapeGroup"></path>
            <path d="M20.703,30.013 L19.65,30.29 L19.523,30.035 L19.658,29.999 C19.797,29.962 19.819,29.914 19.79,29.802 L19.506,28.73 C19.462,28.802 19.363,28.881 19.161,28.959 L19.08,28.649 C19.28,28.54 19.386,28.448 19.479,28.145 L19.908,28.031 L20.337,29.657 C20.367,29.77 20.417,29.799 20.552,29.763 L20.687,29.728 L20.703,30.013" id="Fill-59" fill="#006095" sketch:type="MSShapeGroup"></path>
        </g>
    </g>
</svg>